<?xml version="1.0" encoding="UTF-8" standalone="no"?>
<!DOCTYPE svg PUBLIC "-//W3C//DTD SVG 1.1//EN" "http://www.w3.org/Graphics/SVG/1.1/DTD/svg11.dtd">
<svg width="100%" height="100%" viewBox="0 0 454 182" version="1.1" xmlns="http://www.w3.org/2000/svg" xmlns:xlink="http://www.w3.org/1999/xlink" xml:space="preserve" xmlns:serif="http://www.serif.com/" style="fill-rule:evenodd;clip-rule:evenodd;stroke-linejoin:round;stroke-miterlimit:2;">
    <g id="Layer-1" serif:id="Layer 1" transform="matrix(1,0,0,1,-89.5586,-499.771)">
        <path id="path1" d="M282.255,680.928C267.331,679.245 256.949,677.378 245.835,674.379C243.277,673.689 240.023,672.812 238.602,672.431C236.336,671.822 230.224,669.813 222.846,667.251C221.567,666.807 220.056,666.228 219.488,665.965C218.92,665.701 216.944,664.874 215.097,664.128C211.882,662.829 207.698,660.948 202.699,658.555C199.301,656.928 188.485,650.639 185.438,648.517C180.905,645.362 174.149,639.983 171.006,637.027C169.344,635.464 167.582,634.032 167.089,633.846C166.161,633.495 163.535,633.91 152.589,636.136C138.08,639.088 126.112,639.79 116.319,638.265C106.57,636.746 101.669,634.662 96.992,630.045C88.226,621.391 87.055,607.899 94.323,599.303C96.97,596.173 103.89,592.056 109.816,590.087C114.336,588.585 125.527,588.436 131.15,589.803C144.094,592.949 154.288,598.437 164.729,607.879C171.217,613.747 173.415,615.308 174.76,615.001C176.181,614.676 180.761,612.726 183.326,611.354C184.868,610.529 187.147,608.21 187.182,607.43C187.192,607.204 187.918,605.461 188.794,603.555C190.546,599.745 191.483,597.699 193.873,592.47C194.749,590.552 196.183,587.414 197.06,585.496C197.936,583.578 199.079,581.079 199.599,579.942C200.119,578.806 201.283,576.249 202.186,574.26C203.088,572.271 204.386,569.423 205.07,567.931C205.755,566.44 206.875,563.999 207.559,562.507C208.243,561.016 209.638,557.988 210.658,555.78C211.679,553.572 212.514,551.668 212.514,551.549C212.514,551.43 213.466,549.284 214.63,546.782C215.794,544.279 217.421,540.777 218.246,539.001C219.071,537.224 219.746,535.669 219.746,535.544C219.746,535.42 220.699,533.27 221.862,530.767C223.026,528.264 224.629,524.815 225.424,523.102C226.219,521.389 227.501,518.483 228.273,516.645C230.638,511.009 232.071,509.26 234.896,508.558C236.679,508.114 237.81,508.098 239.012,508.497C242.339,509.602 242.922,510.713 248.166,525.958C248.997,528.373 250.578,532.906 251.679,536.032C252.779,539.157 254.327,543.574 255.118,545.847C256.733,550.49 257.718,552.602 258.494,553.081C258.935,553.354 262.345,550.8 265.738,547.655C266.777,546.692 268.708,545.043 272.696,541.714C274.398,540.294 276.05,538.899 276.367,538.615C278.497,536.707 280.882,534.654 283.557,532.427C285.256,531.013 286.762,529.734 286.904,529.586C287.384,529.084 296.441,521.567 299.044,519.511C300.465,518.388 301.743,517.337 301.885,517.176C303.295,515.573 313.293,510.068 317.641,508.499C332.149,503.268 348.46,505.954 358.195,515.177C363.834,520.519 366.532,526.54 367.445,535.82C367.729,538.703 367.764,553.292 367.533,571.677C367.318,588.724 367.238,602.787 367.356,602.926C367.474,603.066 370.516,603.112 374.118,603.029C382.104,602.846 388.812,603.539 395.647,605.256C400.469,606.466 400.856,606.494 401.459,605.676C401.964,604.991 402.105,594.87 402.105,559.209C402.105,514.221 402.119,513.595 403.161,511.829C404.57,509.44 407.249,508.192 410.038,508.626C412.485,509.006 413.306,509.546 414.91,511.831L416.053,513.461L416.053,611.676L417.981,612.986C419.041,613.706 420.069,614.296 420.264,614.296C420.459,614.296 423.253,615.539 426.472,617.057C429.692,618.576 432.97,619.977 433.757,620.169C435.639,620.63 435.22,620.861 449.632,611.435C458.597,605.572 466.919,600.707 473.912,597.242C479.065,594.689 481.973,593.447 491.476,589.745C499.358,586.675 507.085,585.162 513.095,585.513C528.569,586.416 538.501,593.463 542.376,606.289C545.164,615.516 541.833,625.936 533.508,634.031C525.488,641.83 516.076,645.759 498.967,648.453C494.083,649.221 477.46,648.71 472.104,647.627C461.399,645.461 456.939,644.254 446.79,640.777C443.097,639.511 439.687,638.36 439.214,638.219C438.486,638.001 435.05,639.82 429.756,643.225C428.186,644.235 422.304,647.626 418.378,649.785C412.447,653.047 398.716,659.618 393.839,661.529C391.14,662.586 388.409,663.661 387.77,663.917C383.581,665.597 372.089,669.193 364.135,671.313C349.582,675.193 327.368,678.905 306.535,680.938C300.883,681.489 287.182,681.484 282.255,680.929L282.255,680.928ZM314.101,667.768C323.821,666.481 331.587,665.253 337.014,664.144C352.495,660.981 366.526,657.436 371.626,655.401C372.62,655.004 375.875,653.819 378.858,652.767C384.959,650.618 386.051,650.164 395.647,645.801C404.403,641.82 421.735,632.242 421.735,631.385C421.735,630.534 419.697,629.336 413.987,626.834C399.571,620.516 392.383,618.361 382.325,617.341C371.104,616.203 362.634,617.94 355.223,622.899C349,627.063 346.555,628.128 340.482,629.319C334.054,630.58 329.088,630.574 322.993,629.299C308.375,626.24 299.151,618.913 295.683,607.607L294.503,603.759L294.766,573.512C294.91,556.876 294.924,542.974 294.797,542.619C294.432,541.596 293.421,541.858 291.78,543.402C290.945,544.188 289.216,545.67 287.937,546.696C286.658,547.722 282.242,551.657 278.122,555.442C274.002,559.227 269.598,563.266 268.336,564.417C264.901,567.552 263.657,568.922 263.657,569.575C263.657,570.205 265.453,575.647 266.226,577.36C266.483,577.928 267.299,580.253 268.039,582.526C268.78,584.799 269.607,587.123 269.877,587.692C270.147,588.26 270.955,590.585 271.673,592.858C272.391,595.131 273.199,597.455 273.468,598.024C273.92,598.977 276.251,605.522 277.884,610.422C278.262,611.558 279.285,614.462 280.155,616.875C281.084,619.45 281.738,622.277 281.738,623.719C281.738,625.816 281.464,626.478 279.87,628.243C278.163,630.133 277.778,630.311 275.41,630.311C272.375,630.311 269.854,628.978 268.836,626.837C268.191,625.48 266.023,619.482 262.624,609.647C261.789,607.232 260.162,602.583 259.008,599.315C257.854,596.048 256.212,591.314 255.359,588.796C253.446,583.147 252.479,581.234 251.538,581.234C251.139,581.234 248.877,582.92 246.512,584.98C241.583,589.273 232.299,596.599 227.754,599.781C222.737,603.292 216.185,607.779 214.853,608.614C209.962,611.679 196.806,619.578 194.691,620.719C193.271,621.485 190.481,623.033 188.492,624.16C186.503,625.286 184.353,626.471 183.714,626.792C181.918,627.696 182.298,628.731 185.577,631.871C190.802,636.874 200.027,642.73 210.964,647.987C220.501,652.571 224.175,654.149 232.403,657.191C234.108,657.822 236.316,658.644 237.311,659.018C238.305,659.392 240.746,660.207 242.735,660.829C244.724,661.451 247.347,662.278 248.565,662.667C249.782,663.055 251.111,663.373 251.517,663.373C251.923,663.373 253.252,663.691 254.469,664.08C258.643,665.413 276.104,668.238 283.288,668.743C289.13,669.153 308.195,668.55 314.101,667.769L314.101,667.768ZM500.365,634.726C505.516,633.725 509.46,632.366 513.948,630.044C522.579,625.577 525.804,623.057 527.739,619.264C530.791,613.281 526.725,603.878 519.775,600.849C516.099,599.247 508.938,599.193 503.358,600.725C492.502,603.706 481.146,608.747 469.521,615.748C466.679,617.458 462.285,620.098 459.755,621.614C455.016,624.453 452.215,626.698 452.215,627.656C452.215,628.198 453.718,628.731 461.772,631.047C477.613,635.602 489.848,636.768 500.365,634.726L500.365,634.726ZM135.503,625.387C139.016,624.952 142.075,624.482 142.299,624.343C142.524,624.204 144.408,623.77 146.486,623.377C150.912,622.542 156.148,621.241 156.498,620.891C157.295,620.094 155.197,617.727 150.192,613.779C145.213,609.852 137.488,605.646 132.183,603.975C130.194,603.349 127.986,602.594 127.276,602.299C126.565,602.004 123.19,601.647 119.774,601.506C114.132,601.274 113.305,601.359 110.734,602.436C109.177,603.088 107.466,603.989 106.932,604.438C105.218,605.881 103.5,609.079 103.178,611.422C102.7,614.912 103.332,617.045 105.61,619.633C110.701,625.417 120.315,627.267 135.503,625.387ZM338.822,614.899C345.931,612.385 349.682,608.328 351.552,601.132C352.41,597.828 352.494,594.872 352.496,567.802C352.498,539.803 352.441,537.914 351.492,534.889C350.939,533.123 349.991,530.708 349.385,529.522C347.88,526.572 343.917,522.726 340.568,520.968C337.963,519.6 337.399,519.509 331.589,519.515C325.669,519.521 325.239,519.596 322.032,521.172C318.397,522.959 314.481,526.397 312.492,529.549C309.742,533.904 309.634,535.31 309.634,566.745C309.634,585.484 309.838,597.075 310.209,599.474C310.91,604.005 312.452,607.177 315.37,610.095C317.778,612.503 319.315,613.423 323.297,614.841C326.902,616.125 335.267,616.156 338.822,614.899L338.822,614.899ZM218.455,588.932C220.444,587.507 223.233,585.555 224.654,584.595C229.578,581.269 243.76,568.803 245.666,566.126C246.648,564.747 246.655,564.585 245.837,561.985C245.369,560.496 244.777,558.814 244.521,558.245C244.265,557.677 243.453,555.352 242.718,553.079C241.982,550.806 241.204,548.598 240.989,548.172C240.774,547.745 239.826,545.005 238.882,542.081C236.73,535.412 235.718,534.581 234.166,538.204C228.705,550.956 226.803,555.37 226.196,556.695C225.806,557.548 224.532,560.57 223.366,563.411C222.199,566.253 221.038,569.042 220.786,569.61C220.534,570.179 218.887,574.014 217.125,578.134C215.364,582.254 213.236,587.087 212.396,588.874C211.557,590.662 210.999,592.461 211.157,592.872C211.49,593.74 212.52,593.184 218.455,588.932L218.455,588.932ZM207.079,516.25C205.597,515.731 204.142,514.569 202.814,512.844C201.294,510.872 201.219,506.397 202.666,504.056C204.415,501.225 206.563,500.022 209.926,499.991C213.212,499.96 214.698,500.775 217.025,503.882C218.094,505.309 218.249,506.006 218.09,508.665C217.897,511.891 217.06,513.541 214.719,515.307C213.421,516.286 208.807,516.856 207.079,516.25L207.079,516.25ZM260.255,515.925C256.806,514.423 254.937,510.139 255.96,506.077C256.639,503.38 259.584,500.452 262.13,499.943C269.576,498.454 275.249,506.944 270.857,513.005C268.394,516.406 264.085,517.593 260.255,515.925Z" style="fill-rule:nonzero;"/>
    </g>
</svg>
