<?xml version="1.0" encoding="UTF-8" standalone="no"?>
<!DOCTYPE svg PUBLIC "-//W3C//DTD SVG 1.1//EN" "http://www.w3.org/Graphics/SVG/1.1/DTD/svg11.dtd">
<svg width="100%" height="100%" viewBox="0 0 96 99" version="1.1" xmlns="http://www.w3.org/2000/svg" xmlns:xlink="http://www.w3.org/1999/xlink" xml:space="preserve" xmlns:serif="http://www.serif.com/" style="fill-rule:evenodd;clip-rule:evenodd;stroke-linejoin:round;stroke-miterlimit:2;">
    <g transform="matrix(1,0,0,1,-1.7051,0)">
        <g>
            <path d="M70.066,31.927C62.192,41.366 55.365,44.23 52.039,45.099L52.039,44.136C62.872,41.051 69.461,29.713 69.461,29.713C76.879,32.639 84.138,30.811 84.138,30.811C97.353,27.415 96.898,12.263 96.898,12.263C91.071,30.813 70.572,27.73 69.339,27.537C68.109,27.344 67.724,28.319 67.724,28.319L67.084,29.659C62.319,38.946 55.62,42.597 52.038,43.952L52.038,43.007C60.931,39.19 66.142,28.723 66.646,27.431C67.204,25.999 68.05,26.15 68.05,26.15C78.831,27.17 85.46,23.819 85.46,23.819C100.831,15.975 92.817,0 92.817,0C93.401,21.853 69.293,23.283 67.255,23.454C65.218,23.625 64.914,25.796 64.914,25.796C61.862,36.005 55.722,40.714 52.038,42.703L52.038,35.274C54.125,34.463 55.606,32.441 55.606,30.067C55.606,26.464 52.398,24.499 49.326,24.479L49.326,24.477C49.318,24.477 49.31,24.478 49.302,24.478C49.294,24.478 49.286,24.477 49.278,24.477L49.278,24.479C46.205,24.5 42.998,26.465 42.998,30.067C42.998,32.44 44.479,34.463 46.566,35.274L46.566,42.703C42.882,40.715 36.742,36.005 33.69,25.796C33.69,25.796 33.385,23.626 31.349,23.454C29.311,23.283 5.203,21.853 5.787,0.001C5.787,0.001 -2.227,15.976 13.143,23.82C13.143,23.82 19.772,27.171 30.553,26.151C30.553,26.151 31.4,26 31.958,27.432C32.462,28.724 37.674,39.191 46.566,43.008L46.566,43.953C42.984,42.598 36.285,38.947 31.52,29.66L30.88,28.32C30.88,28.32 30.496,27.345 29.265,27.538C28.033,27.73 7.534,30.813 1.707,12.262C1.707,12.262 1.251,27.415 14.466,30.81C14.466,30.81 21.725,32.638 29.143,29.712C29.143,29.712 35.732,41.05 46.565,44.135L46.565,45.098C43.238,44.229 36.412,41.366 28.538,31.926C28.538,31.926 14.054,36.787 4.694,27.071C4.877,27.426 5.051,27.787 5.24,28.14C6.519,30.524 7.93,32.898 9.436,35.229C13.528,37.914 19.414,38.656 27.733,33.939C27.733,33.939 38.854,43.913 46.566,45.317L46.566,60.303C46.472,60.289 46.376,60.28 46.278,60.28C40.237,53.376 41.038,51.241 41.154,51.011C41.561,50.215 43.642,50.03 44.696,50.146C45.707,50.263 46.131,49.53 46.246,48.51C46.361,47.492 43.321,46.116 42.302,46.002C41.744,45.938 39.582,45.937 37.849,49.32C36.424,52.103 37.882,56.004 42.421,61.474C40.786,62.27 39.125,63.543 38.723,65.508C38.265,67.749 39.523,70.048 42.551,72.491C41.413,73.336 40.336,74.542 40.165,76.157C39.974,77.959 40.941,79.698 43.04,81.342C42.333,82.122 41.671,83.206 41.603,84.581C41.502,86.62 42.721,88.536 45.222,90.276C45.545,90.502 45.915,90.61 46.281,90.61C46.377,90.61 46.47,90.59 46.564,90.575L46.564,92.915C46.564,92.976 46.573,93.036 46.589,93.096L47.997,98.115C48.078,98.404 48.341,98.604 48.641,98.604L49.959,98.604C50.258,98.604 50.522,98.404 50.603,98.115L52.011,93.096C52.029,93.036 52.036,92.976 52.036,92.915L52.036,90.575C52.13,90.591 52.224,90.61 52.319,90.61C52.684,90.61 53.054,90.502 53.378,90.276C55.879,88.534 57.097,86.618 56.997,84.581C56.929,83.206 56.268,82.122 55.559,81.342C57.66,79.698 58.626,77.959 58.434,76.157C58.263,74.543 57.186,73.337 56.048,72.491C59.076,70.047 60.335,67.747 59.876,65.508C59.474,63.543 57.814,62.271 56.178,61.474C60.717,56.002 62.175,52.103 60.75,49.32C59.017,45.936 56.855,45.937 56.297,46.002C55.278,46.116 52.238,47.492 52.353,48.51C52.468,49.53 52.892,50.263 53.904,50.146C54.958,50.03 57.039,50.215 57.446,51.011C57.563,51.24 58.363,53.375 52.322,60.28C52.224,60.28 52.129,60.29 52.034,60.303L52.034,45.318C59.746,43.913 70.867,33.94 70.867,33.94C79.185,38.657 85.072,37.915 89.164,35.23C90.669,32.899 92.081,30.525 93.36,28.141C93.548,27.787 93.722,27.427 93.906,27.072C84.55,36.788 70.066,31.927 70.066,31.927ZM46.566,86.633C45.739,85.93 45.288,85.27 45.313,84.765C45.348,84.054 46.285,83.355 46.566,83.18L46.566,86.633ZM46.566,79.271C44.351,77.912 43.817,76.922 43.857,76.549C43.93,75.854 45.49,74.888 46.566,74.503L46.566,79.271ZM46.566,70.841C42.185,67.884 42.327,66.414 42.359,66.254C42.588,64.756 46.256,64.143 46.566,64.074L46.566,70.841ZM52.038,86.633L52.038,83.18C52.32,83.355 53.257,84.054 53.291,84.765C53.317,85.27 52.865,85.93 52.038,86.633ZM52.038,79.271L52.038,74.503C53.115,74.888 54.674,75.854 54.747,76.549C54.787,76.924 54.254,77.912 52.038,79.271ZM56.245,66.254C56.277,66.414 56.419,67.884 52.038,70.841L52.038,64.074C52.348,64.143 56.017,64.756 56.245,66.254Z" style="fill-rule:nonzero;"/>
            <path d="M31.022,44.556C31.022,44.556 30.648,48.137 26.658,48.919C26.658,48.919 33.819,49.42 39.898,46.57L31.022,44.556Z" style="fill-rule:nonzero;"/>
            <path d="M27.74,38.664C27.74,38.664 39.898,44.556 42.733,45.079C42.733,45.079 33.111,41.052 27.965,35.905C27.965,35.905 20.093,40.786 12.067,39.105C13.355,40.913 14.703,42.671 16.098,44.369C19.468,44.752 23.413,43.417 27.74,38.664Z" style="fill-rule:nonzero;"/>
            <path d="M29.605,42.915L40.345,45.376C40.345,45.376 35.893,43.592 28.262,40.23C28.262,40.23 23.511,45.859 17.337,45.861C17.806,46.408 18.283,46.939 18.761,47.469C22.85,48.893 28.409,49.49 29.605,42.915Z" style="fill-rule:nonzero;"/>
            <path d="M67.647,44.556L58.771,46.571C64.849,49.421 72.01,48.92 72.01,48.92C68.021,48.136 67.647,44.556 67.647,44.556Z" style="fill-rule:nonzero;"/>
            <path d="M70.705,35.904C65.559,41.051 55.936,45.078 55.936,45.078C58.771,44.556 70.929,38.663 70.929,38.663C75.256,43.416 79.201,44.751 82.573,44.367C83.968,42.67 85.316,40.911 86.603,39.103C78.576,40.785 70.705,35.904 70.705,35.904Z" style="fill-rule:nonzero;"/>
            <path d="M70.407,40.229C62.776,43.592 58.324,45.375 58.324,45.375L69.064,42.914C70.258,49.49 75.818,48.892 79.908,47.468C80.386,46.938 80.863,46.407 81.332,45.86C75.159,45.859 70.407,40.229 70.407,40.229Z" style="fill-rule:nonzero;"/>
        </g>
    </g>
</svg>
