<?xml version="1.0" encoding="UTF-8" standalone="no"?>
<!DOCTYPE svg PUBLIC "-//W3C//DTD SVG 1.1//EN" "http://www.w3.org/Graphics/SVG/1.1/DTD/svg11.dtd">
<svg width="100%" height="100%" viewBox="0 0 2667 1102" version="1.1" xmlns="http://www.w3.org/2000/svg" xmlns:xlink="http://www.w3.org/1999/xlink" xml:space="preserve" xmlns:serif="http://www.serif.com/" style="fill-rule:evenodd;clip-rule:evenodd;stroke-linejoin:round;stroke-miterlimit:2;">
    <g id="path1" transform="matrix(1,0,0,1,0,0.00583493)">
        <path d="M1147.35,1097C1146.92,1094.62 1146.75,1037.17 1146.95,969.333L1147.33,846L1168.67,846L1169.01,970.229C1169.22,1049.02 1168.87,1095.71 1168.04,1097.89C1166.81,1101.14 1166.2,1101.33 1157.43,1101.33L1148.12,1101.33L1147.35,1097ZM276.667,1069.78C273.183,1069.02 270.336,1067.86 260.667,1063.29C250.613,1058.53 239.254,1047.06 234.18,1036.54C228.085,1023.91 227.999,1023.68 226.416,1016C224.636,1007.36 222.782,883.228 224.38,879.667C225.231,877.771 227.153,877.333 234.635,877.333C239.699,877.333 244.216,877.937 244.672,878.675C245.128,879.413 245.451,904.463 245.391,934.342C245.266,995.623 246.466,1010.11 252.774,1023.44C257.473,1033.37 265.216,1041.76 273.862,1046.28C280.072,1049.53 282.007,1049.85 296,1049.88C310.147,1049.91 311.849,1049.64 318,1046.32C321.667,1044.35 325.58,1041.97 326.697,1041.03C330.59,1037.78 338.667,1027.04 338.667,1025.13C338.667,1024.07 339.287,1022.58 340.046,1021.82C340.805,1021.06 342.605,1015.5 344.046,1009.47C346.445,999.427 346.667,993.544 346.667,940.025C346.667,907.864 347.031,880.602 347.476,879.442C348.113,877.782 350.384,877.333 358.143,877.333L368,877.333L368,942.035C368,1003.19 367.848,1007.32 365.234,1017.41C363.713,1023.28 361.617,1029.71 360.576,1031.7C359.535,1033.7 358.679,1035.81 358.675,1036.39C358.67,1036.97 358.086,1038.17 357.375,1039.06C356.665,1039.94 353.515,1043.91 350.375,1047.88C343.127,1057.04 332.856,1064.1 321.434,1067.78C314.066,1070.15 309.539,1070.64 295.905,1070.51C286.791,1070.43 278.133,1070.1 276.667,1069.78ZM892.667,1067.73C881.298,1063.71 873.019,1058.24 865.46,1049.76C856.659,1039.88 851.403,1028.7 848.087,1012.79C845.545,1000.59 845.333,995.043 845.333,940.563C845.333,908.107 845.698,880.602 846.143,879.442C846.778,877.787 849.037,877.333 856.654,877.333C865.588,877.333 866.419,877.571 867.16,880.333C867.602,881.983 868.003,909.133 868.052,940.667C868.148,1003.09 868.827,1010.98 875.266,1024.47C879.632,1033.62 888.427,1042.66 897.142,1046.95C902.539,1049.61 905.3,1049.99 918.667,1049.93C931.893,1049.87 934.75,1049.46 939.455,1046.91C948.482,1042.02 955.282,1035.32 959.771,1026.89C963.698,1019.53 965.089,1014.79 968.067,998.667C968.676,995.367 969.21,966.691 969.254,934.944L969.333,877.221L979.667,877.611L990,878L990,943.333C990,1003.7 989.805,1009.38 987.433,1018C986.021,1023.13 984.071,1028.52 983.1,1029.96C982.128,1031.41 981.333,1033.33 981.333,1034.23C981.333,1039.4 964.337,1058.03 955.294,1062.76C943.48,1068.94 935.172,1070.67 917.493,1070.61C903.846,1070.57 899.155,1070.02 892.667,1067.73ZM1926,1067.33C1910.64,1063.34 1902.65,1060.75 1897.47,1058.07C1893.45,1055.99 1893.33,1055.67 1893.33,1046.74C1893.33,1033.39 1893.59,1033.06 1901.08,1036.66C1924.22,1047.78 1932.94,1049.94 1954.67,1049.97C1971.94,1050 1974.57,1049.69 1979.33,1047.13C1986.88,1043.07 1994.43,1035.05 1995.99,1029.45C1997.68,1023.37 1997.71,1011.84 1996.06,1007.49C1992.23,997.425 1976.35,986.501 1958,981.313C1937.78,975.596 1917.41,965.252 1909.84,956.853C1900.53,946.53 1898.42,940.366 1899.03,925.333C1899.71,908.383 1903.18,900.221 1913.87,890.369C1926.88,878.389 1943.99,873.783 1970.42,875.138C1992.01,876.245 2014.41,883.142 2014.79,888.798C2014.86,889.826 2014.97,894.116 2015.04,898.331C2015.18,907.11 2013.72,908.206 2006.39,904.814C1993.28,898.755 1976.08,894.669 1963.09,894.527C1953.48,894.421 1940.25,896.99 1937.23,899.55C1936.07,900.531 1934.54,901.333 1933.82,901.333C1929.47,901.333 1919.96,917.203 1920.03,924.36C1920.11,932.923 1928.62,943.725 1939.59,949.198C1943.12,950.956 1947.16,952.98 1948.58,953.694C1949.99,954.408 1952.69,955.475 1954.58,956.066C1963.57,958.887 1984.51,966.754 1985.84,967.814C1986.66,968.47 1988.83,969.45 1990.67,969.991C1995.9,971.538 2007.08,980.688 2011.86,987.332C2016.37,993.614 2021.35,1008.37 2021.31,1015.33C2021.28,1021.35 2016.97,1037.28 2013.71,1043.45C2010.71,1049.13 1999.23,1061.33 1996.89,1061.33C1996.15,1061.33 1994.6,1062.16 1993.44,1063.16C1992.28,1064.17 1987.58,1066.27 1983,1067.83C1970.8,1071.98 1942.94,1071.74 1926,1067.33L1926,1067.33ZM84.253,1066.85C82.841,1065.96 82.528,1050.32 82.625,985.523C82.706,931.137 82.288,904.45 81.325,902.652C79.982,900.142 78.492,900 53.45,900C32.31,900 26.68,899.622 25.433,898.12C24.479,896.971 24.027,892.696 24.27,887.12L24.667,878L162,878L162.389,888.333C162.604,894.017 162.604,898.786 162.389,898.932C162.175,899.077 149.4,899.527 134,899.932L106,900.667L105.665,982.667C105.358,1057.87 105.144,1064.81 103.077,1066.33C100.559,1068.2 86.963,1068.57 84.253,1066.85ZM446.222,1067.11C445.112,1066 445.034,882.332 446.143,879.442C446.854,877.59 451.421,877.333 483.705,877.333C521.448,877.333 537.72,878.911 546.338,883.407C548.352,884.457 550.771,885.321 551.713,885.325C552.655,885.33 557.456,889.383 562.383,894.333C570.14,902.126 571.766,904.639 574.509,913.067C577.295,921.626 577.586,924.44 576.923,936.4C575.56,961.013 567.146,975.904 549.667,984.641C544.153,987.397 542.667,988.816 542.667,991.325C542.667,993.076 543.265,994.879 543.997,995.332C544.729,995.784 546.87,999.269 548.755,1003.08C550.64,1006.88 555.38,1016 559.288,1023.33C563.196,1030.67 569.211,1042.22 572.655,1049C576.099,1055.78 579.461,1061.67 580.125,1062.08C580.79,1062.49 581.333,1063.99 581.333,1065.41C581.333,1067.78 580.325,1068 569.54,1068C559.63,1068 557.379,1067.59 555.445,1065.46C553.166,1062.94 548.191,1053.64 531.833,1021.33C527.192,1012.17 522.931,1004.47 522.364,1004.22C521.797,1003.98 521.333,1002.97 521.333,1001.99C521.333,1001.01 519.78,998.359 517.881,996.102L514.43,992L493.421,992C474.762,992 472.167,992.273 470.207,994.438C468.275,996.573 468,1001.11 468,1030.84C468,1055.47 467.561,1065.24 466.4,1066.4C464.718,1068.08 447.79,1068.68 446.222,1067.11ZM523.078,970.537C536.844,968.436 544.129,963.707 549.467,953.409C553.721,945.202 554.031,923.163 549.993,916C544.481,906.222 540.603,903.504 527.949,900.552C517.092,898.019 472.365,897.73 469.919,900.176C468.464,901.631 468.055,908.937 467.953,935.294C467.836,965.589 468.035,968.728 470.167,970.287C473.149,972.467 509.311,972.638 523.078,970.537ZM646.222,1067.11C645.112,1066 645.034,882.332 646.143,879.442C646.778,877.786 649.038,877.333 656.665,877.333C666.025,877.333 666.409,877.46 667.252,880.817C667.733,882.733 668.068,903.883 667.996,927.817C667.924,951.751 667.896,972.083 667.933,973C668.051,975.932 674.451,974.895 676.167,971.667C677.526,969.11 686.492,958.13 693.333,950.645C694.433,949.442 696.558,947.004 698.056,945.229C699.553,943.453 703.453,938.97 706.722,935.267C709.992,931.564 715.367,925.291 718.667,921.328C721.967,917.365 725.567,913.188 726.667,912.047C727.767,910.905 734.017,903.678 740.557,895.986C756.965,876.686 755.852,877.398 769.667,877.363C783.095,877.329 783.977,878.326 777,885.658C772.167,890.737 770.553,892.599 755.333,910.653C749.467,917.612 742.5,925.712 739.852,928.653C737.204,931.594 731.553,938.2 727.295,943.333C723.037,948.467 718.454,953.74 717.11,955.052C713.637,958.442 714.068,961.956 718.746,968.389C724.895,976.846 732.42,987.376 734.667,990.667C735.767,992.278 738.767,996.478 741.333,1000C743.9,1003.52 746.9,1007.72 748,1009.34C749.1,1010.95 753,1016.39 756.667,1021.42C760.333,1026.45 765.433,1033.6 768,1037.3C770.567,1041.01 773.427,1045.08 774.356,1046.35C775.285,1047.63 778.782,1052.4 782.125,1056.96C785.469,1061.52 787.823,1065.87 787.357,1066.63C786.873,1067.41 781.129,1068 773.984,1068C762.004,1068 761.353,1067.85 759.062,1064.54C757.745,1062.64 755.617,1059.94 754.333,1058.54C753.05,1057.14 752,1055.63 752,1055.19C752,1054.74 749,1050.61 745.333,1046C741.667,1041.39 738.667,1037.19 738.667,1036.67C738.667,1036.14 735.817,1032.03 732.333,1027.52C728.85,1023.01 725.4,1018.36 724.667,1017.17C721.884,1012.68 702.788,985.896 700.774,983.667C699.615,982.383 697.839,981.333 696.826,981.333C694.919,981.333 672.272,1006.44 669.546,1011.58C668.531,1013.49 668,1023.14 668,1039.65C668,1057.43 667.531,1065.27 666.4,1066.4C664.718,1068.08 647.79,1068.68 646.222,1067.11L646.222,1067.11ZM1326.22,1067.11C1325.11,1066 1325.03,882.332 1326.14,879.442C1326.78,877.786 1329.04,877.333 1336.66,877.333C1345.95,877.333 1346.41,877.482 1347.23,880.715C1347.69,882.575 1348.02,900.032 1347.95,919.508C1347.85,952.208 1348.02,955.06 1350.25,956.751C1353.95,959.555 1449.63,959.524 1451.96,956.718C1453.14,955.286 1453.53,945.405 1453.4,919.5C1453.3,900.102 1453.61,882.679 1454.09,880.782C1454.92,877.468 1455.33,877.333 1464.67,877.333C1472.3,877.333 1474.56,877.786 1475.19,879.442C1475.63,880.602 1476,922.782 1476,973.176C1476,1042.66 1475.61,1065.19 1474.4,1066.4C1473.47,1067.33 1469.04,1068 1463.88,1068C1456.82,1068 1454.78,1067.54 1454.11,1065.8C1453.64,1064.6 1453.31,1045.35 1453.37,1023.03C1453.45,993.729 1453.04,981.923 1451.91,980.558C1450.61,978.987 1441.9,978.667 1400.55,978.667C1352.69,978.667 1350.71,978.767 1349.38,981.246C1348.52,982.861 1348,998.953 1348,1024.31C1348,1054.03 1347.57,1065.23 1346.4,1066.4C1344.72,1068.08 1327.79,1068.68 1326.22,1067.11L1326.22,1067.11ZM1554.93,1066.4C1552.62,1064.09 1552.62,881.248 1554.93,878.933C1556.12,877.741 1570.37,877.333 1610.79,877.333C1671.98,877.333 1666.67,876.26 1666.67,888.612C1666.67,893.096 1665.97,896.249 1664.77,897.25C1663.38,898.402 1651.65,898.755 1621.22,898.56C1582.22,898.31 1579.46,898.448 1577.79,900.735C1575.36,904.053 1575.19,957.325 1577.6,959.733C1578.77,960.906 1589.77,961.333 1618.77,961.333C1651.27,961.333 1658.62,961.671 1659.91,963.221C1660.83,964.334 1661.31,968.299 1661.07,972.888L1660.67,980.667L1620.11,981.02C1592.91,981.257 1578.97,981.859 1577.78,982.85C1575.34,984.871 1575.18,1042.64 1577.6,1045.07C1578.78,1046.25 1590.52,1046.67 1622.12,1046.67C1670.36,1046.67 1666.67,1045.78 1666.67,1057.33C1666.67,1068.97 1671.75,1068 1610.79,1068C1570.37,1068 1556.12,1067.59 1554.93,1066.4ZM1738.14,1065.89C1737.09,1063.13 1737.09,882.198 1738.14,879.442C1738.78,877.786 1741.04,877.333 1748.66,877.333C1757.95,877.333 1758.41,877.482 1759.23,880.716C1759.69,882.577 1760.02,920.076 1759.96,964.048C1759.89,1008.02 1760.21,1044.6 1760.67,1045.33C1761.19,1046.17 1776.24,1046.67 1801.5,1046.67C1826.53,1046.67 1842.47,1047.18 1844.09,1048.05C1846.22,1049.19 1846.67,1050.89 1846.67,1057.9C1846.67,1064.4 1846.17,1066.57 1844.56,1067.19C1843.4,1067.64 1819.16,1068 1790.7,1068C1744.74,1068 1738.86,1067.76 1738.14,1065.89ZM2085.73,1066.1C2085.15,1065.05 2084.82,1022.15 2085.02,970.762L2085.37,877.333L2095.21,877.333C2102.95,877.333 2105.22,877.783 2105.86,879.442C2106.3,880.602 2106.67,922.553 2106.67,972.667C2106.67,1022.78 2106.3,1064.73 2105.86,1065.89C2104.75,1068.78 2087.33,1068.95 2085.73,1066.1ZM2183.61,1067.16C2183.09,1066.65 2182.67,1023.72 2182.67,971.778L2182.67,877.333L2203.78,877.333L2207.69,882.333C2211.7,887.454 2216.17,893.773 2229.11,912.602C2244.07,934.386 2251.85,945.569 2262.28,960.333C2270.84,972.446 2277.33,981.772 2281.98,988.667C2284.46,992.333 2289.53,999.533 2293.25,1004.67C2296.97,1009.8 2300.59,1015.31 2301.28,1016.92C2302.8,1020.45 2307.81,1023.39 2309.47,1021.74C2310.11,1021.09 2310.8,988.482 2310.99,949.278L2311.33,878L2321.67,877.611L2332,877.221L2332,1068L2321.59,1068C2315.29,1068 2310.33,1067.34 2309.03,1066.33C2307.85,1065.42 2301.25,1056.57 2294.36,1046.67C2287.48,1036.77 2279.73,1025.67 2277.15,1022C2274.57,1018.33 2269.55,1011.13 2265.99,1006C2262.43,1000.87 2255.32,990.667 2250.19,983.333C2245.06,976 2239.2,967.6 2237.16,964.667C2235.13,961.733 2230.45,955.133 2226.77,950C2223.09,944.867 2218.28,937.627 2216.08,933.912C2211.2,925.665 2207.1,921.697 2205.31,923.486C2204.52,924.276 2203.89,952.396 2203.68,996.055L2203.33,1067.33L2193.94,1067.72C2188.78,1067.93 2184.13,1067.68 2183.61,1067.16ZM2409.97,1066.39C2409.61,1065.44 2409.47,1022.67 2409.66,971.333L2410,878L2430,878L2430.35,925.715C2430.64,965.577 2431.01,973.55 2432.6,974.16C2435.44,975.249 2437.7,973.489 2444.82,964.667C2448.37,960.267 2453.15,954.567 2455.44,952C2465.22,941.064 2473.03,932.126 2478.31,925.828C2481.42,922.126 2485.32,917.595 2486.98,915.759C2488.64,913.923 2495.94,905.398 2503.2,896.815C2510.45,888.231 2517.64,880.337 2519.16,879.271C2522.4,877 2545.33,876.467 2545.33,878.663C2545.33,879.793 2543.07,882.616 2534,892.802C2533.27,893.626 2529.67,897.765 2526,902.001C2522.33,906.237 2518.22,910.969 2516.85,912.518C2515.49,914.066 2512.19,918.033 2509.52,921.333C2506.85,924.633 2504.01,927.933 2503.22,928.667C2502.42,929.4 2496.57,936.112 2490.22,943.582C2482.28,952.914 2478.67,958.227 2478.67,960.562C2478.67,962.597 2481.47,967.673 2485.67,973.217C2489.52,978.308 2494.77,985.54 2497.33,989.287C2499.9,993.035 2505,1000.26 2508.67,1005.35C2514.56,1013.53 2525.64,1029.05 2530.31,1035.67C2531.22,1036.95 2534.22,1041.1 2536.98,1044.9C2539.74,1048.69 2542.9,1053.11 2544,1054.72C2545.1,1056.33 2547.05,1059.02 2548.33,1060.7C2553.16,1067.03 2551.82,1068 2538.23,1068C2528.15,1068 2525.37,1067.56 2523.51,1065.67C2521.31,1063.42 2514.74,1054.5 2500.67,1034.67C2497,1029.5 2491,1021.14 2487.33,1016.1C2483.67,1011.06 2479.77,1005.62 2478.67,1004C2477.57,1002.39 2474.45,997.979 2471.73,994.202C2469.02,990.424 2465.84,985.983 2464.67,984.333C2461.55,979.935 2458.48,980.638 2453.29,986.94C2450.75,990.023 2447.47,993.857 2446,995.46C2444.53,997.063 2441.59,1000.39 2439.47,1002.85C2437.34,1005.32 2434.64,1008.45 2433.47,1009.8C2431.71,1011.83 2431.22,1017.17 2430.67,1039.8L2430,1067.33L2420.31,1067.73C2413.32,1068.01 2410.45,1067.64 2409.97,1066.39ZM2608.29,1066.87C2606.92,1066.01 2606.58,1047.08 2606.6,972.797C2606.62,921.653 2606.97,879.251 2607.39,878.571C2608.53,876.736 2625.85,877.045 2627.73,878.933C2628.95,880.147 2629.33,902.958 2629.33,973.444L2629.33,1066.36L2626.33,1067.16C2621.98,1068.33 2610.29,1068.14 2608.29,1066.87ZM58,785.527C34.982,776.847 23.721,758.494 23.52,729.333C23.291,696.056 38.959,674.067 65.25,670.765C80.304,668.875 101.9,672.723 105.646,677.963C106.826,679.614 106.967,685.667 105.89,688.473C105.221,690.216 104.432,690.113 100.223,687.738C83.243,678.155 61.524,678.951 50.595,689.557C41.71,698.18 37.333,711.086 37.333,728.667C37.333,750.362 44.149,765.606 56.638,771.843C68.721,777.877 88.611,776.706 99.567,769.314C105.529,765.292 106.667,765.829 106.667,772.667C106.667,778.038 105.234,779.915 98.857,782.893C93.79,785.26 89.763,785.853 76.667,786.159C67.867,786.364 59.467,786.08 58,785.527ZM515.333,785.527C506.534,782.208 501.591,779.074 495.825,773.153C492.254,769.488 489.333,765.826 489.333,765.016C489.333,764.206 488.531,762.596 487.55,761.438C483.975,757.219 480.915,741.32 481,727.412C481.083,713.929 483.032,704.574 487.794,694.809C490.898,688.442 500.938,678.458 507.813,674.899C519.726,668.733 544.164,668.684 557.987,674.798C563.767,677.355 564,677.68 564,683.173C564,686.317 563.643,689.246 563.206,689.683C562.769,690.12 560.219,689.245 557.539,687.738C535.437,675.308 509.973,680.518 500.376,699.433C492.532,714.893 492.73,742.972 500.793,758.667C506.253,769.294 518.137,776 531.51,776C540.743,776 550.931,773.282 557.047,769.186C563.505,764.862 564.464,765.576 563.756,774.182C563.37,778.868 562.758,779.593 556.667,782.582C550.887,785.419 547.872,785.899 534,786.193C525.2,786.379 516.8,786.08 515.333,785.527ZM1108.67,785.682C1106.47,785.361 1104.07,784.604 1103.33,784.001C1102.6,783.399 1099.74,782.482 1096.97,781.965C1089.65,780.597 1085.75,773.622 1089.23,768.127C1090.22,766.565 1091.49,766.764 1096.87,769.329C1104.57,772.994 1117.03,775.891 1125.33,775.946C1134.35,776.005 1140.88,773.698 1145.9,768.676C1154.11,760.467 1153.77,751.077 1144.94,742.6C1141.93,739.704 1138.92,737.333 1138.27,737.333C1137.61,737.333 1135.18,736.502 1132.87,735.485C1130.56,734.469 1124.77,732.274 1120,730.607C1108.85,726.71 1104.36,724.311 1098.95,719.375C1088.42,709.776 1089.18,690.202 1100.49,679.341C1108.29,671.847 1122.42,668.873 1140.61,670.897C1154.21,672.41 1159.04,675.12 1160.13,681.85C1161.12,687.934 1158.84,689.463 1153.48,686.301C1151.53,685.147 1145.05,683.212 1139.07,682.002C1128.94,679.949 1127.68,679.952 1120.22,682.045C1109.14,685.155 1104.89,689.755 1104.76,698.803C1104.67,705.184 1105.03,705.954 1110.16,710.484C1113.19,713.151 1119.49,716.762 1124.16,718.508C1128.84,720.253 1134.56,722.503 1136.87,723.508C1139.18,724.512 1141.7,725.333 1142.47,725.333C1145.76,725.333 1156.62,734.212 1160.16,739.794C1163.31,744.764 1164,747.308 1163.99,753.928C1163.96,768.272 1157.34,778.283 1143.8,784.45C1139.07,786.602 1119.62,787.285 1108.67,785.682L1108.67,785.682ZM1574.94,783.581C1558.14,776.164 1549.44,763.582 1545.9,741.575C1544.05,730.109 1544.05,727.496 1545.88,715.979C1546.99,708.924 1548.82,701.393 1549.94,699.243C1551.07,697.093 1551.99,694.652 1551.99,693.819C1552.01,691.449 1565.45,678.064 1570.95,674.954C1581.71,668.862 1609.65,668.707 1621.35,674.674C1626.61,677.359 1628,679.477 1628,684.818C1628,689.098 1624.83,690.184 1620.54,687.374C1611.12,681.198 1593.52,679.261 1582.76,683.214C1573.44,686.637 1568.58,691.2 1563.82,700.991C1559.53,709.796 1559.43,710.407 1559.38,728C1559.34,744.012 1559.68,746.81 1562.48,753.333C1566.9,763.654 1570.69,768.208 1577.83,771.77C1589.67,777.686 1609.23,776.799 1620.24,769.847C1626.2,766.089 1628,766.583 1628,771.97C1628,778.084 1626.75,779.827 1620.19,782.893C1615.17,785.238 1610.97,785.871 1598,786.241C1583.56,786.653 1581.31,786.395 1574.94,783.581L1574.94,783.581ZM1864.67,786.108C1863.93,785.841 1859.73,784.579 1855.33,783.303C1845.25,780.381 1841.33,776.967 1841.33,771.101C1841.33,765.671 1842.7,765.537 1852.76,769.983C1868.4,776.9 1888.05,777.689 1896.8,771.75C1902.59,767.814 1906.02,759.423 1904.7,752.403C1903.41,745.528 1895.96,738.792 1885.24,734.826C1880.53,733.08 1874.78,730.83 1872.47,729.826C1870.15,728.822 1867.59,728 1866.77,728C1865.31,728 1857.3,723.08 1853.29,719.717C1848.59,715.772 1845.33,707.896 1845.33,700.463C1845.33,689.979 1850.35,681.526 1860.37,675.132C1870.21,668.853 1897.49,668.523 1909.33,674.539C1913.39,676.602 1914.05,677.634 1914.41,682.455C1914.87,688.696 1913.17,689.51 1906.87,686.063C1901.26,682.988 1884.36,679.815 1878.89,680.809C1866.81,683.007 1857.33,690.967 1857.33,698.919C1857.33,705.258 1864.88,713.345 1874,716.793C1876.2,717.624 1883.09,720.223 1889.32,722.569C1905.91,728.823 1912.93,734.647 1916.61,745.238C1919.21,752.716 1919.15,756.356 1916.3,764.696C1913.26,773.54 1911.28,776.106 1903.33,781.487C1896.81,785.904 1896.34,786.006 1881.33,786.297C1872.9,786.46 1865.4,786.375 1864.67,786.108ZM2381.33,785.879C2377.43,784.444 2365.97,778.556 2363.97,776.957C2360.55,774.221 2352,763.156 2352,761.463C2352,760.586 2351.08,758.081 2349.95,755.898C2346.46,749.158 2344.89,730.599 2346.58,716.225C2347.41,709.23 2348.59,702.867 2349.21,702.086C2349.83,701.306 2350.8,699.178 2351.36,697.359C2353.63,689.973 2362.3,680.63 2371.89,675.245C2387.07,666.718 2425.8,670.321 2428.54,680.516C2430.93,689.408 2428.22,691.487 2420.42,686.735C2418.09,685.312 2411.79,683.24 2406.43,682.131C2397.69,680.321 2395.76,680.327 2387.58,682.187C2379.55,684.012 2377.64,685.091 2371.57,691.227C2362.49,700.39 2359.46,709.771 2359.46,728.667C2359.46,747.342 2362.5,756.856 2371.41,766.067C2377.23,772.091 2379.22,773.259 2386.07,774.68C2397.33,777.019 2409.34,775.587 2419.48,770.695C2424.07,768.48 2428.17,766.667 2428.58,766.667C2429,766.667 2429.33,768.506 2429.33,770.754C2429.33,781.5 2421.53,785.502 2399.33,786.148C2390.53,786.404 2382.43,786.283 2381.33,785.879L2381.33,785.879ZM2590,785.288C2587.8,784.68 2583.3,783.456 2580,782.567C2571.79,780.358 2569.33,777.924 2569.33,772.016C2569.33,769.318 2569.64,766.804 2570.02,766.428C2570.39,766.053 2574.17,767.401 2578.42,769.423C2582.67,771.446 2589.67,773.754 2593.98,774.551C2610.23,777.555 2620.14,775.775 2627.36,768.553C2631.59,764.317 2632,763.233 2632,756.16C2632,749.122 2631.58,747.972 2627.38,743.656C2624.02,740.196 2618.86,737.407 2608.38,733.401C2580.14,722.597 2574.6,717.918 2573.59,704.025C2573.28,699.662 2573.39,694.121 2573.84,691.712C2574.85,686.381 2582,678.069 2588.66,674.5C2599.22,668.839 2627.11,669.143 2637.67,675.034C2642.08,677.499 2642.67,678.418 2642.67,682.912C2642.67,687.14 2642.21,688 2639.95,688C2638.46,688 2635.91,687.155 2634.29,686.123C2632.66,685.09 2626.62,683.217 2620.87,681.96C2611.01,679.805 2609.93,679.804 2602.02,681.946C2591.31,684.843 2586.63,689.426 2585.67,697.936C2585.01,703.759 2585.26,704.344 2590.47,709.301C2595.38,713.965 2606.18,720 2609.64,720C2610.94,720 2613.19,720.937 2626.69,727.094C2640.67,733.474 2646.48,744.153 2644.55,759.925C2643.23,770.756 2637.53,778.34 2626.74,783.654C2621.6,786.181 2618.61,786.623 2607.33,786.518C2600,786.45 2592.2,785.896 2590,785.288L2590,785.288ZM147.321,782.333C146.92,780.683 146.758,755.333 146.962,726L147.333,672.667L159.333,672.667L160,722.667L160.667,772.667L186,773.333L211.333,774L211.743,779.667L212.153,785.333L148.051,785.333L147.321,782.333ZM243.307,783.747C242.938,782.785 242.793,757.398 242.985,727.332L243.333,672.667L254,672.667L254,784.667L248.989,785.081C245.764,785.348 243.739,784.872 243.307,783.747ZM297.943,783.665C297.591,782.748 297.46,757.398 297.651,727.332L298,672.667L304.184,672.266C310.65,671.848 311.219,672.24 317.333,681.332C318.433,682.968 321.176,686.787 323.429,689.82C325.681,692.852 327.925,696.233 328.415,697.333C328.905,698.433 332.355,703.533 336.082,708.667C339.809,713.8 343.852,719.5 345.065,721.333C346.279,723.167 347.587,724.967 347.973,725.333C348.359,725.7 350.471,728.7 352.667,732C354.863,735.3 357.013,738.3 357.445,738.667C357.877,739.033 359.836,742.033 361.797,745.333C368.494,756.601 372.172,759.617 373.857,755.224C374.302,754.064 374.667,734.864 374.667,712.558L374.667,672L386.667,672L386.667,785.333L380.571,785.333C373.918,785.333 373.231,784.849 367.337,776C365.139,772.7 363.039,769.7 362.67,769.333C361.803,768.47 358.317,763.474 347.757,747.953C343.035,741.012 336.627,731.733 333.517,727.333C330.408,722.933 325.07,715.217 321.655,710.185C315.553,701.195 312.811,698.744 310.943,700.614C310.424,701.133 310.215,719.131 310.477,740.609C310.739,762.088 310.549,780.938 310.054,782.497C309.335,784.761 308.088,785.333 303.868,785.333C300.868,785.333 298.306,784.612 297.943,783.665L297.943,783.665ZM430.667,785.487L430.667,671.847L436.333,672.257L442,672.667L442,784.667L436.333,785.077L430.667,785.487ZM592,782.922C592,781.595 592.881,779.345 593.958,777.922C595.034,776.498 595.955,774.433 596.003,773.333C596.051,772.233 597.25,768.933 598.667,766C600.084,763.067 601.263,759.985 601.288,759.152C601.313,758.32 602.23,755.92 603.325,753.819C604.421,751.719 605.34,749.1 605.368,748C605.395,746.9 606.299,744.835 607.376,743.412C608.452,741.988 609.337,739.888 609.342,738.745C609.347,737.602 610.246,734.948 611.342,732.848C612.437,730.747 613.354,728.347 613.379,727.514C613.403,726.681 614.583,723.6 616,720.667C617.417,717.733 618.616,714.433 618.664,713.333C618.712,712.233 619.632,710.169 620.709,708.745C621.786,707.322 622.67,705.222 622.675,704.079C622.68,702.935 623.579,700.281 624.675,698.181C625.77,696.08 626.687,693.68 626.712,692.848C626.737,692.015 627.916,688.933 629.333,686C630.75,683.067 631.93,679.71 631.955,678.54C632.052,673.949 636.586,671.844 645.468,672.266C654.71,672.705 654.574,672.581 659.116,684.667C660.218,687.6 663.316,695.7 666,702.667C668.684,709.633 671.684,717.433 672.667,720C673.649,722.567 676.649,730.367 679.333,737.333C682.017,744.3 685.065,752.25 686.107,755C689.37,763.618 692.383,771.13 694.903,776.927C698.307,784.761 698.074,785.333 691.487,785.333C685.16,785.333 682.425,782.813 680.521,775.228C680.008,773.184 678.785,769.971 677.802,768.089C676.82,766.207 676.013,763.721 676.008,762.566C676.003,761.41 674.611,759.16 672.914,757.566C669.962,754.793 668.692,754.667 643.676,754.667C615.274,754.667 614.33,754.899 612.463,762.338C611.982,764.254 610.785,767.362 609.802,769.245C608.82,771.127 608.013,773.22 608.008,773.897C608.003,774.573 606.95,777.407 605.667,780.195C603.504,784.893 602.918,785.267 597.667,785.299C593.076,785.327 592,784.875 592,782.922ZM666.43,740.919C666.685,739.591 665.942,736.5 664.78,734.051C663.618,731.601 662.667,728.752 662.667,727.72C662.667,726.688 661.786,724.678 660.709,723.255C659.632,721.831 658.729,719.767 658.701,718.667C658.673,717.567 657.754,714.948 656.658,712.848C655.563,710.747 654.646,708.347 654.621,707.514C654.597,706.681 653.417,703.6 652,700.667C650.583,697.733 649.394,694.133 649.358,692.667C649.18,685.432 641.769,684.414 639.652,691.333C638.978,693.533 637.581,697.224 636.547,699.535C635.513,701.846 634.648,704.546 634.624,705.535C634.601,706.524 633.701,708.498 632.624,709.922C631.548,711.345 630.663,713.445 630.658,714.588C630.653,715.731 629.754,718.385 628.658,720.486C627.563,722.586 626.667,724.995 626.667,725.839C626.667,726.683 625.467,729.612 624,732.348C621.273,737.437 620.615,741.504 622.254,743.143C622.76,743.649 632.803,743.899 644.57,743.699C663.997,743.367 666.009,743.111 666.43,740.919ZM728.619,783.69C728.262,782.759 728.126,757.398 728.318,727.332L728.667,672.667L740.667,672.667L741.333,722.667L742,772.667L767.333,773.437C781.267,773.861 792.853,774.311 793.081,774.437C793.308,774.563 793.308,776.917 793.081,779.667L792.667,784.667L760.967,785.024C736.319,785.302 729.124,785.005 728.619,783.69ZM872,785.333L872,672L897.284,672C919.704,672 923.366,672.313 929.617,674.763C943.25,680.106 949.333,689.539 949.333,705.333C949.333,719.01 944.803,727.896 934.342,734.736C931.597,736.531 929.347,738.689 929.342,739.532C929.337,740.375 931.69,745.475 934.57,750.866C937.45,756.256 941.697,764.41 944.007,768.986C946.318,773.561 948.761,777.646 949.437,778.064C950.114,778.482 950.667,780.289 950.667,782.079C950.667,785.055 950.145,785.333 944.571,785.333C941.219,785.333 937.769,784.577 936.905,783.653C936.041,782.729 930.833,773.058 925.333,762.162C918.133,747.897 914.469,742.023 912.247,741.176C907.576,739.396 887.484,739.716 885.6,741.6C884.491,742.709 884,749.659 884,764.267L884,785.333L872,785.333ZM923.031,726.136C929.769,723.193 932.877,719.858 934.573,713.753C937.799,702.136 934.979,692.489 926.751,686.991C922.435,684.108 921.078,683.951 903.417,684.298L884.667,684.667L884.283,703.333C883.855,724.183 884.301,727.499 887.668,728.494C892.77,730.003 918.034,728.318 923.031,726.136ZM988,785.333L988,672L1021.19,672C1050.73,672 1054.47,672.241 1055.22,674.188C1056.22,676.792 1054.91,681.606 1052.82,682.98C1052,683.518 1040.5,683.968 1027.27,683.98C1010.35,683.994 1002.73,684.475 1001.6,685.6C1000.54,686.663 1000,692.467 1000,702.903C1000,723.6 998.993,722.886 1027.72,722.566C1039.45,722.436 1049.71,722.741 1050.52,723.244C1052.79,724.644 1052.32,731.594 1049.89,732.524C1048.73,732.969 1037.65,733.333 1025.27,733.333C1004.38,733.333 1002.66,733.519 1001.38,735.912C999.397,739.617 999.582,769.715 1001.6,771.733C1002.73,772.861 1010.38,773.333 1027.51,773.333C1047.82,773.333 1052.15,773.677 1053.9,775.429C1056.24,777.764 1056.3,778.083 1055.16,782.333L1054.36,785.333L988,785.333ZM1201.94,783.665C1201.59,782.748 1201.46,757.398 1201.65,727.332L1202,672.667L1269.33,671.954L1269.33,677.155C1269.33,683.904 1269.09,683.959 1239.63,683.982C1211.57,684.003 1213.67,682.294 1214.2,704.64C1214.49,716.926 1214.93,719.562 1216.94,721.029C1218.68,722.302 1224.78,722.746 1239.33,722.661C1250.33,722.596 1260.72,722.571 1262.41,722.605C1265.15,722.66 1265.45,723.226 1265.08,727.667L1264.67,732.667L1241.14,733.03C1222.46,733.319 1217.28,733.795 1215.99,735.342C1214.27,737.414 1213.66,769.295 1215.29,771.931C1215.84,772.825 1224.71,773.34 1239.75,773.352C1269.07,773.374 1269.33,773.436 1269.33,780.156L1269.33,785.333L1235.96,785.333C1210.47,785.333 1202.43,784.939 1201.94,783.665ZM1296.45,783.417C1296.86,782.363 1297.84,779.088 1298.63,776.14C1299.42,773.191 1300.66,770.419 1301.37,769.978C1302.08,769.537 1302.67,768.161 1302.67,766.921C1302.67,765.681 1303.58,762.948 1304.67,760.848C1305.77,758.747 1306.69,756.347 1306.71,755.514C1306.74,754.681 1307.92,751.6 1309.33,748.667C1310.75,745.733 1311.95,742.433 1312,741.333C1312.05,740.233 1312.97,738.169 1314.04,736.745C1315.12,735.322 1316.02,733.222 1316.05,732.078C1316.07,730.935 1317.25,727.6 1318.67,724.667C1320.08,721.733 1321.26,718.652 1321.29,717.819C1321.31,716.986 1322.23,714.586 1323.33,712.486C1324.42,710.385 1325.32,707.731 1325.33,706.588C1325.33,705.445 1326.21,703.345 1327.29,701.922C1328.37,700.498 1329.29,698.433 1329.34,697.333C1329.38,696.233 1330.58,692.933 1332,690C1333.42,687.067 1334.6,684.118 1334.62,683.448C1334.65,682.778 1335.68,679.928 1336.92,677.115L1339.18,672L1348.92,672C1355.81,672 1358.68,672.49 1358.71,673.667C1358.74,674.583 1359.92,677.733 1361.33,680.667C1362.75,683.6 1363.95,686.9 1364,688C1364.05,689.1 1364.97,691.165 1366.04,692.588C1367.12,694.012 1368.02,696.112 1368.05,697.255C1368.07,698.398 1369.25,701.733 1370.67,704.667C1372.08,707.6 1373.26,710.681 1373.29,711.514C1373.31,712.347 1374.23,714.747 1375.33,716.848C1376.42,718.948 1377.34,721.567 1377.37,722.667C1377.4,723.767 1378.3,725.831 1379.38,727.255C1380.45,728.678 1381.35,730.778 1381.38,731.922C1381.4,733.065 1382.58,736.4 1384,739.333C1385.42,742.267 1386.6,745.617 1386.62,746.778C1386.65,747.939 1387.05,749.275 1387.53,749.747C1388.63,750.848 1394.64,765.572 1394.71,767.333C1394.73,768.067 1395.92,771.067 1397.33,774C1398.75,776.933 1399.93,780.683 1399.95,782.333C1400,785.007 1399.35,785.333 1394,785.333C1390.11,785.333 1387.98,784.746 1387.95,783.667C1387.93,782.75 1386.75,779.6 1385.33,776.667C1383.92,773.733 1382.74,770.773 1382.71,770.088C1382.64,767.986 1376.94,756.727 1375.42,755.687C1374.64,755.148 1362.24,754.698 1347.87,754.687C1324.02,754.668 1321.55,754.884 1319.49,757.163C1317.4,759.467 1313.47,768.628 1310.62,777.796C1308.78,783.742 1306.75,785.333 1301.03,785.333C1296.96,785.333 1295.89,784.886 1296.45,783.417ZM1369.7,738.272C1369.53,735.489 1368.48,731.905 1367.37,730.309C1366.25,728.713 1365.33,726.49 1365.33,725.37C1365.33,724.25 1364.46,721.687 1363.41,719.675C1362.36,717.662 1359.91,711.362 1357.96,705.675C1356.02,699.987 1353.88,694.763 1353.21,694.067C1352.55,693.37 1352,691.793 1352,690.563C1352,689.333 1351.15,687.623 1350.12,686.762C1347.61,684.683 1343.28,689.207 1342.14,695.092C1341.69,697.425 1340.46,701.133 1339.41,703.333C1338.35,705.533 1335.33,713.033 1332.68,720C1330.04,726.967 1326.99,734.389 1325.91,736.494C1322.32,743.479 1324.3,744.111 1348.52,743.699L1370,743.333L1369.7,738.272ZM1432,785.333L1432,672L1457.62,672C1478.43,672 1484.38,672.425 1489.29,674.257C1503.95,679.732 1510,688.811 1510,705.333C1510,718.833 1506.59,726.003 1496.69,733.319C1492.64,736.306 1489.33,738.971 1489.33,739.241C1489.33,739.51 1491.69,744.142 1494.56,749.532C1503.19,765.694 1512,783.288 1512,784.344C1512,786.219 1499.05,785.4 1497.4,783.42C1496.53,782.368 1491.66,773.218 1486.58,763.087C1481.49,752.956 1476.07,743.617 1474.52,742.333C1472.33,740.517 1469.21,740 1460.43,740C1443.26,740 1444,738.91 1444,764.047L1444,785.333L1432,785.333ZM1480.09,727.204C1488.93,724.605 1491.61,722.362 1494.84,714.889C1498.04,707.486 1498,701.87 1494.7,695.045C1490.09,685.5 1485.96,684 1464.32,684C1448.5,684 1445.49,684.325 1444.81,686.109C1444.36,687.269 1444,696.535 1444,706.7C1444,724.287 1444.14,725.283 1446.96,727.258C1450.99,730.078 1470.43,730.046 1480.09,727.204L1480.09,727.204ZM1668.61,783.665C1668.26,782.748 1668.13,757.398 1668.32,727.332L1668.67,672.667L1680.67,672.667L1680.81,695.139C1680.93,712.752 1681.36,717.866 1682.81,718.785C1683.83,719.431 1698,719.968 1714.29,719.98C1742.22,719.999 1743.99,719.853 1745.29,717.421C1746.07,715.95 1746.67,705.637 1746.67,693.421L1746.67,672L1758.67,672L1758.67,785.333L1746.67,785.333L1746.67,760.047C1746.67,736.412 1746.5,734.67 1744.09,733.38C1742.54,732.552 1730.08,732 1712.92,732C1689.13,732 1684.05,732.336 1682.67,734C1681.47,735.446 1681.07,742.201 1681.23,758.395C1681.36,770.712 1681.07,781.812 1680.59,783.061C1679.54,785.798 1669.62,786.298 1668.61,783.665ZM1956,785.38L1956,671.953L2022,672.667L2022,683.333L1996.77,683.697C1980.91,683.925 1970.88,684.605 1969.77,685.527C1967.66,687.275 1967.27,716.773 1969.31,720C1970.34,721.637 1974.7,722.037 1993.32,722.202C2016.69,722.41 2020,723.117 2020,727.897C2020,732.799 2017.42,733.333 1993.78,733.333C1972.39,733.333 1970.66,733.515 1969.38,735.912C1968.62,737.331 1968,745.17 1968,753.333C1968,761.496 1968.62,769.336 1969.38,770.754C1970.67,773.158 1972.41,773.335 1995.05,773.354C2008.4,773.365 2020.13,773.878 2021.1,774.494C2022.16,775.167 2022.69,777.417 2022.43,780.14L2022,784.667L1989,785.023L1956,785.38ZM2062.67,785.333L2062.67,672L2088.64,672C2117.46,672 2121.54,672.834 2131.33,680.714C2137.6,685.758 2140.12,691.884 2140.93,704C2141.76,716.507 2137.43,725.874 2127.39,733.294C2123.32,736.295 2120,738.919 2120,739.125C2120,739.497 2124.37,748.183 2126.48,752C2127.08,753.1 2128.24,755.2 2129.05,756.667C2132.93,763.665 2142.67,783.466 2142.67,784.344C2142.67,786.219 2129.72,785.4 2128.07,783.42C2127.2,782.368 2122.32,773.218 2117.24,763.087C2112.16,752.956 2106.73,743.617 2105.19,742.333C2102.97,740.5 2099.85,740 2090.61,740C2074.25,740 2074.67,739.349 2074.67,764.762L2074.67,785.333L2062.67,785.333ZM2113.33,726.592C2120.62,724.058 2124.74,719.382 2126.64,711.459C2128.99,701.634 2125.94,692.078 2118.91,687.301C2114.33,684.189 2113.01,684 2095.96,684C2083.66,684 2077.35,684.513 2076.27,685.6C2075.18,686.688 2074.67,693.01 2074.67,705.345C2074.67,723.676 2075.35,726.623 2080,728.5C2083.22,729.796 2108.23,728.364 2113.33,726.592ZM2206.93,783.733C2206.05,782.853 2205.33,781.203 2205.33,780.067C2205.33,778.93 2204.44,776.32 2203.37,774.266C2202.3,772.212 2200.85,768.612 2200.15,766.266C2199.45,763.92 2197.59,758.7 2196.01,754.667C2194.43,750.633 2192.59,745.533 2191.92,743.333C2191.25,741.133 2190.18,738.133 2189.53,736.667C2186.42,729.599 2182.66,719.075 2182.62,717.308C2182.6,716.222 2181.7,714.169 2180.62,712.745C2179.55,711.322 2178.67,709.233 2178.67,708.104C2178.67,706.196 2175.36,696.999 2171.13,687.132C2170.14,684.821 2169.33,682.104 2169.33,681.095C2169.33,680.086 2168.45,678.005 2167.38,676.472C2164.84,672.838 2165.87,672 2172.92,672C2179.3,672 2178.55,671.056 2184.1,686C2185.73,690.4 2187.88,695.891 2188.87,698.202C2189.86,700.512 2190.67,703.248 2190.67,704.28C2190.67,705.312 2191.55,707.322 2192.62,708.745C2193.7,710.169 2194.61,712.533 2194.63,714C2194.66,715.467 2195.56,718.347 2196.63,720.401C2197.7,722.455 2199.15,726.055 2199.85,728.401C2200.55,730.747 2202.41,735.967 2203.99,740C2205.57,744.033 2207.41,749.133 2208.08,751.333C2208.75,753.533 2209.83,756.533 2210.48,758C2211.13,759.467 2212.33,762.317 2213.14,764.333C2213.95,766.35 2215.23,768 2215.99,768C2217.69,768 2222.66,760.075 2222.66,757.359C2222.66,755.653 2225.78,746.818 2229.48,738C2230.89,734.633 2234.43,724.573 2236.06,719.333C2236.74,717.133 2237.82,714.133 2238.47,712.667C2241.82,705.067 2245.33,695.021 2245.33,693.053C2245.33,691.827 2245.92,690.463 2246.63,690.022C2247.34,689.581 2248.59,686.75 2249.41,683.731C2251.89,674.524 2254.23,672 2260.31,672C2264.77,672 2265.53,672.382 2264.94,674.333C2263.72,678.35 2260.99,685.834 2259.22,690C2258.29,692.2 2255.33,700.3 2252.65,708C2249.96,715.7 2246.92,723.593 2245.88,725.539C2244.85,727.486 2244,729.874 2244,730.847C2244,732.436 2240.19,743.071 2237.14,750C2236.49,751.467 2235.4,754.467 2234.72,756.667C2233.07,762.022 2229.53,772.034 2228.13,775.333C2227.51,776.8 2226.34,779.65 2225.53,781.667C2224.16,785.078 2223.52,785.333 2216.3,785.333C2212.03,785.333 2207.81,784.613 2206.93,783.733ZM2294.67,785.333L2294.67,672L2306.67,672L2306.67,785.333L2294.67,785.333ZM2469.94,783.665C2469.59,782.748 2469.46,757.398 2469.65,727.332L2470,672.667L2536.67,672.667L2537.07,676.166C2537.91,683.433 2535.46,684.112 2508.92,683.936C2487.24,683.793 2484.62,684.017 2483.06,686.143C2481.89,687.752 2481.33,693.328 2481.33,703.557C2481.33,723.519 2480.4,722.885 2509.35,722.563C2532.66,722.304 2533.71,722.604 2533.01,729.333L2532.67,732.667L2483.91,733.394L2482.62,736.784C2480.95,741.195 2480.95,765.494 2482.63,769.913L2483.93,773.333L2508.54,773.333C2529.13,773.333 2533.49,773.675 2535.24,775.429C2537.47,777.663 2537.83,779.824 2536.53,783.224C2535.82,785.068 2531.62,785.333 2503.15,785.333C2478.31,785.333 2470.43,784.937 2469.94,783.665L2469.94,783.665ZM0,625.333L0,0L602.333,0L603.167,4.167C604.241,9.536 604.264,620.427 603.191,623.224C602.456,625.139 574.607,625.333 301.191,625.333L0,625.333ZM459.315,544.571C489.016,541.828 503.288,537.673 516.667,527.876C524.824,521.902 527.917,518.503 532.582,510.387C543.567,491.272 545.609,478.643 546.268,425.742L546.803,382.817L543.634,380.741C541.891,379.599 536.01,377.801 530.566,376.746C525.121,375.691 516.467,373.922 511.333,372.815C506.2,371.708 498.7,370.157 494.667,369.368C490.633,368.579 483.733,367.099 479.333,366.079C447.168,358.624 445.699,358.377 442.778,359.94C439.887,361.488 439.884,361.538 440.069,408.217C440.173,434.419 439.727,455.473 439.054,456.146C438.354,456.846 380.956,457.204 301.26,457.006L164.667,456.667L164.667,168.667L301.26,168.327C382.623,168.125 438.348,168.481 439.075,169.208C439.768,169.902 440.202,187.666 440.08,210.384C439.885,246.433 440.087,250.563 442.137,252.614C443.814,254.291 445.667,254.674 449.205,254.078C451.842,253.633 459.1,252.421 465.333,251.385C471.567,250.348 480.567,248.807 485.333,247.961C490.1,247.114 499.1,245.632 505.333,244.667C511.567,243.701 522.559,241.995 529.76,240.875C536.961,239.755 543.711,238.126 544.76,237.256C547.93,234.625 547.377,171.678 544.023,153.333C539.636,129.345 532.793,114.958 520.873,104.667C509.67,94.996 499.916,90.82 478.902,86.699C465.541,84.079 460.354,84 302.235,83.994C126.847,83.987 130.909,83.843 108.392,90.872C89.526,96.762 77.459,107.162 68.406,125.333C66.762,128.633 65.398,132.263 65.375,133.4C65.352,134.537 64.79,136.037 64.126,136.733C62.989,137.926 61.641,144.891 58.567,165.451C57.747,170.94 57.407,229.223 57.661,320.785C58.091,475.407 57.892,470.232 64.233,492.17C71.726,518.092 86.991,532.521 115.333,540.47C133.677,545.616 156.156,546.354 299.315,546.514C414.526,546.642 440.282,546.329 459.315,544.571ZM689.006,316.333C688.819,146.383 689.01,5.833 689.429,4L690.192,0.667L988.881,0.33L1287.57,-0.006L1289.12,3.393C1290.28,5.943 1290.67,83.545 1290.67,313.954C1290.67,482.893 1290.3,622.064 1289.86,623.224C1289.12,625.139 1261.39,625.333 989.196,625.333L689.345,625.333L689.006,316.333ZM845.371,543.963C848.032,541.301 848.073,539.944 847.96,457.961C847.897,412.147 848.215,374.064 848.668,373.331C849.19,372.486 866.553,372 896.226,372L942.961,372L948.48,377.676C951.516,380.799 957.569,387.849 961.931,393.343C966.293,398.838 970.225,403.633 970.668,404C971.415,404.618 979.861,415.101 1001.22,441.923C1005.93,447.832 1010.16,452.967 1010.63,453.333C1011.41,453.949 1019.3,463.735 1041.22,491.256C1045.93,497.165 1050.16,502.3 1050.63,502.667C1051.1,503.033 1055.01,507.833 1059.33,513.333C1063.65,518.833 1067.59,523.633 1068.09,524C1068.58,524.367 1072.6,529.229 1077.02,534.806C1083.2,542.597 1086.05,545.144 1089.36,545.806C1095.67,547.068 1229.7,546.818 1231.71,545.54C1234.41,543.828 1232.28,540.265 1222.76,530.604C1217.94,525.71 1202.32,509.472 1188.04,494.519C1173.77,479.567 1153.6,458.633 1143.22,448C1132.84,437.367 1117.52,421.524 1109.17,412.795C1100.83,404.065 1089.02,391.866 1082.92,385.687C1076.83,379.507 1072.05,373.854 1072.29,373.125C1072.57,372.295 1083.62,371.855 1101.88,371.948C1133.51,372.108 1162.03,370.082 1169.16,367.17C1171.64,366.16 1174.62,365.333 1175.79,365.333C1176.97,365.333 1182.27,363.16 1187.57,360.503C1206.23,351.159 1218.17,335.461 1224.02,312.576C1226.5,302.877 1226.67,297.658 1226.67,227.871C1226.67,159.622 1226.46,152.636 1224.15,142.978C1222.77,137.19 1221.06,131.302 1220.35,129.894C1219.64,128.485 1217.92,124.944 1216.53,122.023C1213.13,114.876 1198.09,100.012 1190.67,96.463C1177.37,90.099 1175.54,89.371 1170.87,88.544C1168.19,88.071 1162.72,86.855 1158.72,85.842C1148.69,83.306 746.796,83.071 744.267,85.6C743.035,86.832 742.667,139.568 742.667,314.858L742.667,542.515L745.63,544.591C748.176,546.374 755.216,546.667 795.63,546.667C841.106,546.667 842.756,546.577 845.371,543.963ZM849.43,290.117C848.284,288.736 847.877,271.935 847.903,227.117L847.939,166L972.969,165.645C1096.58,165.295 1098.08,165.322 1105.33,168.049C1114,171.308 1117.04,173.657 1121.04,180.157C1123.94,184.88 1124,185.884 1124,227.92L1124,270.858L1120.7,276.429C1115.8,284.71 1110.56,287.576 1096,289.936C1077.81,292.885 851.865,293.05 849.43,290.117ZM1376.74,624.113C1375.71,622.457 1375.81,6.782 1376.83,3L1377.64,0L1676.68,0C1948.13,0 1975.79,0.195 1976.52,2.109C1976.97,3.269 1977.33,143.969 1977.33,314.776L1977.33,625.333L1677.41,625.333C1497.48,625.333 1377.19,624.845 1376.74,624.113ZM1851.33,543.718C1859.4,542.656 1867.31,541.084 1868.91,540.226C1870.51,539.369 1872.9,538.667 1874.21,538.667C1875.52,538.667 1881.08,536.421 1886.56,533.675C1897.21,528.343 1909.6,517.087 1913.57,509.141C1917.81,500.654 1919.91,495.314 1921.37,489.333C1922.18,486.033 1923.52,480.633 1924.35,477.333C1926.46,468.983 1926.46,339.017 1924.35,330.667C1923.52,327.367 1922.18,322.037 1921.37,318.822C1919.22,310.243 1911.29,294.692 1906.32,289.333C1893.14,275.105 1878.71,268.697 1850.77,264.67C1839.06,262.983 1813.45,262.667 1688.7,262.667C1575.24,262.667 1540.16,262.292 1538.93,261.067C1537.75,259.886 1537.34,247.917 1537.35,215.4C1537.36,191.163 1537.73,169.981 1538.17,168.327L1538.98,165.321L1682.49,165.661L1826,166L1826.67,191.333L1827.33,216.667L1830.6,217.127C1832.39,217.38 1835.99,216.944 1838.6,216.157C1841.2,215.371 1848.73,213.496 1855.33,211.99C1861.93,210.484 1870.33,208.417 1874,207.397C1880.35,205.631 1883.52,204.872 1902,200.691C1917.05,197.285 1919.93,196.068 1920.76,192.758C1921.89,188.261 1919.13,152.773 1916.92,143.333C1915.15,135.809 1907.99,118.802 1905.19,115.498C1893.91,102.193 1887.11,97.437 1870,90.891C1867.8,90.049 1859.81,88.154 1852.24,86.68C1838.93,84.089 1833.28,84 1682.6,84C1517.13,84 1518.46,83.955 1497.33,90.262C1485.21,93.882 1472.11,101.868 1464.99,109.99C1461.32,114.169 1453.62,128.237 1452.58,132.667C1452.06,134.867 1451.17,137.267 1450.6,138C1449.59,139.298 1447.64,151.031 1445.28,170C1444.64,175.133 1444.12,197.033 1444.12,218.667C1444.12,240.3 1444.64,262.2 1445.28,267.333C1447.66,286.484 1449.6,298.04 1450.63,299.333C1451.21,300.067 1452.1,302.558 1452.59,304.87C1455.05,316.395 1465.64,330.625 1477.33,338.122C1491.2,347.015 1503.17,350.241 1531.33,352.682C1549.5,354.256 1581.49,354.641 1692.56,354.62C1770,354.606 1831.64,355.109 1832.29,355.761C1834.23,357.694 1833.59,455.012 1831.63,456.257C1830.74,456.83 1760.4,457.157 1675.33,456.983L1520.67,456.667L1520.31,430.333L1519.94,404L1514.06,404C1510.82,404 1506.49,404.65 1504.42,405.444C1502.36,406.239 1496.17,407.766 1490.67,408.839C1457.16,415.373 1432.92,420.901 1429,422.903C1424,425.456 1427.12,475.289 1433.41,493.333C1438.99,509.337 1447.57,521.695 1457.79,528.451C1465.09,533.275 1476.15,538.667 1478.75,538.667C1479.61,538.667 1483.09,539.592 1486.49,540.722C1501.7,545.783 1525.09,546.41 1684,546.023C1808.04,545.72 1839.42,545.288 1851.33,543.718ZM2063.56,624.444C2062.45,623.338 2062.4,7.129 2063.51,3L2064.31,0L2363.58,0C2621.18,0 2663.12,0.265 2664.76,1.905C2666.4,3.545 2666.67,47.022 2666.67,314.571L2666.67,625.333L2365.56,625.333C2199.94,625.333 2064.04,624.933 2063.56,624.444ZM2412,545.362C2413.76,544.251 2414.08,521.301 2414.67,356.382L2415.33,168.667L2513.28,168.325C2567.14,168.136 2611.72,167.484 2612.33,166.875C2613.81,165.389 2613.84,86.644 2612.36,85.16C2611.7,84.499 2503.67,84.139 2363.26,84.33L2115.33,84.667L2114.96,123.333C2114.75,144.6 2114.92,163.35 2115.32,165L2116.05,168L2211.92,168C2264.64,168 2308.73,168.364 2309.89,168.809C2311.8,169.542 2312,187.28 2312,356.067L2312,542.515L2314.96,544.591C2317.51,546.373 2324.43,546.664 2363.96,546.646C2390.64,546.634 2410.84,546.094 2412,545.362Z" style="fill:rgb(0,47,103);fill-rule:nonzero;"/>
    </g>
</svg>
