<?xml version="1.0" encoding="UTF-8" standalone="no"?>
<!DOCTYPE svg PUBLIC "-//W3C//DTD SVG 1.1//EN" "http://www.w3.org/Graphics/SVG/1.1/DTD/svg11.dtd">
<svg width="100%" height="100%" viewBox="0 0 99 80" version="1.1" xmlns="http://www.w3.org/2000/svg" xmlns:xlink="http://www.w3.org/1999/xlink" xml:space="preserve" xmlns:serif="http://www.serif.com/" style="fill-rule:evenodd;clip-rule:evenodd;stroke-linejoin:round;stroke-miterlimit:2;">
    <rect id="Artboard1" x="0" y="0" width="98.045" height="80" style="fill:none;"/>
    <clipPath id="_clip1">
        <rect id="Artboard11" serif:id="Artboard1" x="0" y="0" width="98.045" height="80"/>
    </clipPath>
    <g clip-path="url(#_clip1)">
        <g>
            <rect x="71.6" y="0" width="7.5" height="80" style="fill:rgb(64,104,173);"/>
            <rect x="35.4" y="0" width="7.5" height="80" style="fill:rgb(64,104,173);"/>
            <rect x="44.4" y="0" width="7.5" height="80" style="fill:rgb(64,104,173);"/>
            <g>
                <path d="M61,0L53.4,0L53.4,12.3C53.4,12.3 53.5,13.4 54.6,14.5C56.4,16.3 56.9,18.3 56.9,20.2L56.9,25C56.9,26.9 56.4,28.4 54.6,30.2C53.5,31.3 53.4,32.4 53.4,32.4L53.4,43.2C53.4,43.2 53.5,44.3 54.6,45.4C56.4,47.2 57,49.4 57,51.3L57,57.7C57,59.6 56.3,60.9 54.6,62.7C53.5,63.8 53.4,64.9 53.4,64.9L53.4,80L61,80L61,64.8C61,64.8 60.9,63.7 59.8,62.6C58,60.8 57.5,59.5 57.5,57.6L57.5,51.1C57.5,49.2 58,47 59.8,45.2C60.9,44.1 61,43 61,43L61,32.2C61,32.2 60.9,31.1 59.8,30C58,28.2 57.4,26.7 57.4,24.8L57.4,20C57.4,18.1 58.1,16.1 59.8,14.3C60.9,13.2 61,12.1 61,12.1L61,0Z" style="fill:rgb(64,104,173);fill-rule:nonzero;"/>
                <path d="M70.2,0L62.5,0L62.5,13.7C62.5,13.7 62.6,14.8 63.7,15.9C65.5,17.7 65.7,19.4 65.7,21.3L65.7,24.7C65.7,26.6 65.5,28.4 63.7,30.1C62.6,31.2 62.5,32.3 62.5,32.3L62.5,45.5C62.5,45.5 62.6,46.6 63.7,47.7C65.5,49.5 66.1,51.2 66.1,53.1L66.1,55C66.1,56.9 65.5,58.7 63.7,60.4C62.6,61.5 62.5,62.6 62.5,62.6L62.5,80L70.2,80L70.2,62.7C70.2,62.7 70.1,61.6 69,60.5C67.2,58.7 66.6,57 66.6,55.1L66.6,53.3C66.6,51.4 67.2,49.6 69,47.9C70.1,46.8 70.2,45.7 70.2,45.7L70.2,0Z" style="fill:rgb(64,104,173);fill-rule:nonzero;"/>
                <path d="M13.7,22.2C11.2,22.2 11.7,26.6 11.7,26.6L15.5,26.6C15.5,26.6 16.2,22.2 13.7,22.2" style="fill:rgb(64,104,173);fill-rule:nonzero;"/>
                <path d="M16.9,11.5C19,11.5 20.7,9.8 20.7,7.7C20.7,5.6 19,3.9 16.9,3.9C14.8,3.9 13.1,5.6 13.1,7.7C13.1,9.8 14.8,11.5 16.9,11.5" style="fill:rgb(64,104,173);fill-rule:nonzero;"/>
                <path d="M26.3,21.5L19.6,26.6L26.3,26.6L26.3,32L7.7,32L7.7,26.6C7.7,26.6 7.1,17.5 13.9,17.5C17.3,17.5 18.8,19.3 19.4,21.2L26.3,16L26.3,21.5ZM26.3,48.6L7.7,48.6L7.7,43.2L15,43.2L7.9,38.4L7.9,33L16.7,38.9L16.7,38.8L26.2,32.3L26.2,37.8L18.4,43.2L26.3,43.2L26.3,48.6ZM26.3,56.3L7.7,56.3L7.7,50.9L26.3,50.9L26.3,56.3ZM26,7.9C26,13 21.9,17.1 16.9,17.1C11.9,17.1 7.8,13 7.8,7.9C7.8,4.5 9.6,1.6 12.3,0L0,0L0,80L24.7,80L7.7,77.2L7.7,71.2L17.4,68.1L7.6,65.3L7.6,60L26.2,57L26.2,62.4L16.9,63.9L24.1,66L26.2,66.6L26.2,70.7L17.5,73.5L26.2,74.9L26.2,80L33.8,80L33.8,0L21.5,0C24.2,1.6 26,4.5 26,7.9" style="fill:rgb(64,104,173);fill-rule:nonzero;"/>
                <path d="M93.4,5.4L93.4,0L92.8,0L92.8,5.5C92.8,7.4 92.6,9.2 90.8,10.9C89.7,12 89.6,13.1 89.6,13.1L89.6,25.8C89.6,25.8 89.7,26.9 90.8,28C92.6,29.8 93.2,31.5 93.2,33.4L93.2,40.4C93.2,42.3 92.6,44.1 90.8,45.8C89.7,46.9 89.6,48 89.6,48L89.6,66C89.6,66 89.7,67.1 90.8,68.2C92.6,70 93.2,71.7 93.2,73.6L93.2,80L93.8,80L93.8,73.6C93.8,71.7 94.4,69.9 96.2,68.2C97.3,67.1 97.4,66 97.4,66L97.4,48C97.4,48 97.3,46.9 96.2,45.8C94.4,44 93.8,42.3 93.8,40.4L93.8,33.3C93.8,31.4 94.4,29.6 96.2,27.9C97.3,26.8 97.4,25.7 97.4,25.7L97.4,13.1C97.4,13.1 97.3,12 96.2,10.9C94.3,9.1 93.4,7.3 93.4,5.4" style="fill:rgb(64,104,173);fill-rule:nonzero;"/>
                <path d="M84.7,80C84.8,78.3 85.5,76.8 87,75.2C88.1,74.1 88.2,73 88.2,73L88.2,44C88.2,44 88.1,42.9 87,41.8C85.5,40.3 85.1,38.8 85,37.3C85.1,35.7 85.5,34.3 87,32.8C88.1,31.7 88.2,30.6 88.2,30.6L88.2,6.6C88.2,6.6 88.1,5.5 87,4.4C85.6,2.9 84.8,1.5 84.7,-0L84.1,-0C84,1.5 83.2,2.9 81.8,4.4C80.7,5.5 80.6,6.6 80.6,6.6L80.6,73C80.6,73 80.7,74.1 81.8,75.2C83.4,76.8 84.1,78.3 84.1,80" style="fill:rgb(64,104,173);fill-rule:nonzero;"/>
            </g>
        </g>
    </g>
</svg>
