<?xml version="1.0" encoding="UTF-8"?>
<!-- Generator: Adobe Illustrator 19.1.1, SVG Export Plug-In . SVG Version: 6.00 Build 0)  -->
<svg version="1.1" id="Layer_1" xmlns="http://www.w3.org/2000/svg" xmlns:xlink="http://www.w3.org/1999/xlink" x="0px" y="0px" viewBox="0 0 338.4 80" style="enable-background:new 0 0 338.4 80;" xml:space="preserve">
<style type="text/css">
	.st0{fill:#4068AD;}
	.st1{clip-path:url(#SVGID_2_);fill:#4068AD;}
	.st2{clip-path:url(#SVGID_4_);fill:#FBB615;}
	.st3{clip-path:url(#SVGID_4_);fill:#4068AD;}
</style>
<g>
	<rect x="283.4" class="st0" width="0.6" height="80"/>
	<rect x="289.1" class="st0" width="7.5" height="80"/>
	<rect x="298.1" class="st0" width="7.5" height="80"/>
	<rect x="307.1" class="st0" width="7.5" height="80"/>
	<rect x="107.8" class="st0" width="7.5" height="80"/>
	<rect x="71.6" class="st0" width="7.5" height="80"/>
	<rect x="116.7" class="st0" width="7.5" height="80"/>
	<rect x="125.8" class="st0" width="7.5" height="80"/>
	<rect x="35.4" class="st0" width="7.5" height="80"/>
	<rect x="44.4" class="st0" width="7.5" height="80"/>
	<rect x="210.9" class="st0" width="0.6" height="80"/>
	<rect x="102.2" class="st0" width="0.6" height="80"/>
	<rect x="138.5" class="st0" width="0.6" height="80"/>
	<rect x="337.8" class="st0" width="0.6" height="80"/>
	<rect x="328.8" class="st0" width="0.6" height="80"/>
	<rect x="319.7" class="st0" width="0.6" height="80"/>
	<rect x="234.7" class="st0" width="7.5" height="80"/>
	<rect x="243.7" class="st0" width="7.5" height="80"/>
	<rect x="252.7" class="st0" width="7.5" height="80"/>
	<g>
		<defs>
			<rect id="SVGID_1_" width="338.4" height="80"/>
		</defs>
		<clipPath id="SVGID_2_">
			<use xlink:href="#SVGID_1_" style="overflow:visible;"/>
		</clipPath>
		<path class="st1" d="M265.6,0h-0.6h-3.2v19.9c0,0,0.1,1.1,1.2,2.2c1.8,1.8,2.4,3.5,2.4,5.4V80h0.6V27.5c0-1.9,0.6-3.7,2.4-5.4    c1.1-1.1,1.2-2.2,1.2-2.2V0h-3.2H265.6z"/>
		<path class="st1" d="M220.3,0h-0.6h-3.2v19.9c0,0,0.1,1.1,1.2,2.2c1.8,1.8,2.4,3.5,2.4,5.4V80h0.6V27.5c0-1.9,0.6-3.7,2.4-5.4    c1.1-1.1,1.2-2.2,1.2-2.2V0h-3.2H220.3z"/>
		<path class="st1" d="M229.3,0h-0.6h-3.2v19.9c0,0,0.1,1.1,1.2,2.2c1.8,1.8,2.4,3.3,2.4,5.2v52.5h0.6V27.3c0-1.9,0.6-3.4,2.4-5.2    c1.1-1.1,1.2-2.2,1.2-2.2V0H230H229.3z"/>
		<path class="st1" d="M274.6,0H274h-3.2v19.9c0,0,0.1,1.1,1.2,2.2c1.8,1.8,2.4,3.5,2.4,5.4V80h0.6V27.5c0-1.9,0.6-3.7,2.4-5.4    c1.1-1.1,1.2-2.2,1.2-2.2V0h-3.2H274.6z"/>
	</g>
	<rect x="162.2" class="st0" width="7.5" height="80"/>
	<rect x="171.2" class="st0" width="7.5" height="80"/>
	<rect x="180.3" class="st0" width="7.5" height="80"/>
	<g>
		<defs>
			<rect id="SVGID_3_" width="338.4" height="80"/>
		</defs>
		<clipPath id="SVGID_4_">
			<use xlink:href="#SVGID_3_" style="overflow:visible;"/>
		</clipPath>
		<path class="st2" d="M193.1,0h-0.6h-3.2v19.9c0,0,0.1,1.1,1.2,2.2c1.8,1.8,2.4,3.5,2.4,5.4V80h0.6V27.5c0-1.9,0.6-3.7,2.4-5.4    c1.1-1.1,1.2-2.2,1.2-2.2V0h-3.2H193.1z"/>
		<path class="st3" d="M193.1,0h-0.6h-3.2v19.9c0,0,0.1,1.1,1.2,2.2c1.8,1.8,2.4,3.5,2.4,5.4V80h0.6V27.5c0-1.9,0.6-3.7,2.4-5.4    c1.1-1.1,1.2-2.2,1.2-2.2V0h-3.2H193.1z"/>
		<path class="st3" d="M57.2,0h-0.6h-3.2v12.3c0,0,0.1,1.1,1.2,2.2c1.8,1.8,2.3,3.8,2.3,5.7v3.1v1.7c0,1.9-0.5,3.4-2.3,5.2    c-1.1,1.1-1.2,2.2-1.2,2.2v2.9v2.1v5.8c0,0,0.1,1.1,1.2,2.2c1.8,1.8,2.4,4,2.4,5.9v1.7V56v1.7c0,1.9-0.7,3.2-2.4,5    c-1.1,1.1-1.2,2.2-1.2,2.2V80H61V64.8c0,0-0.1-1.1-1.2-2.2c-1.8-1.8-2.3-3.1-2.3-5V56v-3.2v-1.7c0-1.9,0.5-4.1,2.3-5.9    c1.1-1.1,1.2-2.2,1.2-2.2v-5.8v-2.1v-2.9c0,0-0.1-1.1-1.2-2.2c-1.8-1.8-2.4-3.3-2.4-5.2v-1.7v-3.1c0-1.9,0.7-3.9,2.4-5.7    c1.1-1.1,1.2-2.2,1.2-2.2V0h-3.2H57.2z"/>
		<path class="st3" d="M66.3,0h-0.6h-3.2v13.7c0,0,0.1,1.1,1.2,2.2c1.8,1.8,2,3.5,2,5.4V23v1.7c0,1.9-0.2,3.7-2,5.4    c-1.1,1.1-1.2,2.2-1.2,2.2v2.4v2.6v8.2c0,0,0.1,1.1,1.2,2.2c1.8,1.8,2.4,3.5,2.4,5.4v0.2v1.4V55c0,1.9-0.6,3.7-2.4,5.4    c-1.1,1.1-1.2,2.2-1.2,2.2V80h3.2h1.3h3.2V62.7c0,0-0.1-1.1-1.2-2.2c-1.8-1.8-2.4-3.5-2.4-5.4v-0.2v-1.4v-0.2    c0-1.9,0.6-3.7,2.4-5.4c1.1-1.1,1.2-2.2,1.2-2.2v-8.2v-1.1v-1.5v-2.4v-20V0h-3.2H66.3z"/>
		<path class="st3" d="M156.9,0h-0.6H153v19.9c0,0,0.1,1.1,1.2,2.2c1.8,1.8,2.3,3.3,2.3,5.2v52.5h0.6V27.3c0-1.9,0.7-3.4,2.5-5.2    c1.1-1.1,1.2-2.2,1.2-2.2V0h-3.2H156.9z"/>
		<path class="st3" d="M147.8,0h-0.6h-3.2v19.9c0,0,0.1,1.1,1.2,2.2c1.8,1.8,2.4,3.5,2.4,5.4V80h0.6V27.5c0-1.9,0.6-3.7,2.4-5.4    c1.1-1.1,1.2-2.2,1.2-2.2V0h-3.2H147.8z"/>
		<path class="st3" d="M202.2,0h-0.6h-3.2v19.9c0,0,0.1,1.1,1.2,2.2c1.8,1.8,2.4,3.5,2.4,5.4V80h0.6V27.5c0-1.9,0.6-3.7,2.4-5.4    c1.1-1.1,1.2-2.2,1.2-2.2V0h-3.2H202.2z"/>
		<path class="st3" d="M13.7,22.2c-2.5,0-2,4.4-2,4.4h3.8C15.5,26.6,16.2,22.2,13.7,22.2"/>
		<path class="st3" d="M16.9,11.5c2.1,0,3.8-1.7,3.8-3.8c0-2.1-1.7-3.8-3.8-3.8c-2.1,0-3.8,1.7-3.8,3.8    C13.1,9.8,14.8,11.5,16.9,11.5"/>
		<path class="st3" d="M26.3,21.5l-6.7,5.1h6.7v5.4H7.7v-5.4h0c0,0-0.6-9.1,6.2-9.1c3.4,0,4.9,1.8,5.5,3.7l6.9-5.2V21.5z M26.3,48.6    H7.7v-5.4H15l-7.1-4.8v-5.4l8.8,5.9v-0.1l9.5-6.5v5.5l-7.8,5.4h7.9V48.6z M26.3,56.3H7.7v-5.4h18.6V56.3z M26,7.9    c0,5.1-4.1,9.2-9.1,9.2S7.8,13,7.8,7.9c0-3.4,1.8-6.3,4.5-7.9H0v80h24.7L7.7,77.2v-0.6v-4.8v-0.6l9.7-3.1l-9.8-2.8v-4.2V60l18.6-3    v5.4l-9.3,1.5l7.2,2.1l2.1,0.6v4.1l-8.7,2.8l8.7,1.4V80h7.6V0H21.5C24.2,1.6,26,4.5,26,7.9"/>
		<path class="st3" d="M93.4,5.4V3.8V0h-0.6v3.8v1.7c0,1.9-0.2,3.7-2,5.4c-1.1,1.1-1.2,2.2-1.2,2.2v4.7V21v4.8c0,0,0.1,1.1,1.2,2.2    c1.8,1.8,2.4,3.5,2.4,5.4V35v3.7v1.7c0,1.9-0.6,3.7-2.4,5.4c-1.1,1.1-1.2,2.2-1.2,2.2v10.1v5.1V66c0,0,0.1,1.1,1.2,2.2    c1.8,1.8,2.4,3.5,2.4,5.4v1.7V80h0.6v-4.7v-1.7c0-1.9,0.6-3.7,2.4-5.4c1.1-1.1,1.2-2.2,1.2-2.2v-2.9v-5.1V48c0,0-0.1-1.1-1.2-2.2    c-1.8-1.8-2.4-3.5-2.4-5.4v-1.7V35v-1.7c0-1.9,0.6-3.7,2.4-5.4c1.1-1.1,1.2-2.2,1.2-2.2V21v-3.2v-4.7c0,0-0.1-1.1-1.2-2.2    C94.3,9.1,93.4,7.3,93.4,5.4"/>
		<path class="st3" d="M84.7,80c0.1-1.7,0.8-3.2,2.3-4.8c1.1-1.1,1.2-2.2,1.2-2.2v-5.3v-2.7V44c0,0-0.1-1.1-1.2-2.2    c-1.5-1.5-1.9-3-2-4.5c0.1-1.6,0.5-3,2-4.5c1.1-1.1,1.2-2.2,1.2-2.2v-6.2v-1.7V6.6c0,0-0.1-1.1-1.2-2.2c-1.4-1.5-2.2-2.9-2.3-4.4    h-0.6h0c-0.1,1.5-0.9,2.9-2.3,4.4c-1.1,1.1-1.2,2.2-1.2,2.2v16.1v1.7V44v1.1v20v2.7V73c0,0,0.1,1.1,1.2,2.2    c1.6,1.6,2.3,3.1,2.3,4.8h0"/>
	</g>
</g>
</svg>