<?xml version="1.0" encoding="UTF-8" standalone="no"?>
<!DOCTYPE svg PUBLIC "-//W3C//DTD SVG 1.1//EN" "http://www.w3.org/Graphics/SVG/1.1/DTD/svg11.dtd">
<svg width="100%" height="100%" viewBox="0 0 498 367" version="1.1" xmlns="http://www.w3.org/2000/svg" xmlns:xlink="http://www.w3.org/1999/xlink" xml:space="preserve" xmlns:serif="http://www.serif.com/" style="fill-rule:evenodd;clip-rule:evenodd;stroke-linecap:round;stroke-linejoin:round;stroke-miterlimit:1.5;">
    <g id="path1" transform="matrix(1.33333,0,0,1.33333,-144.316,-368.264)">
        <path d="M125.438,414.572C125.438,414.279 124.477,410.708 123.667,408.086C120.949,399.283 118.491,387.633 117.597,379.32L116.71,371.07L117.197,365.07C121.275,314.785 154.467,280.445 202.406,276.914L211.797,276.222L225.656,276.882L239.514,277.541L248.514,279.571C256.956,281.475 269.618,285.482 285.264,291.199L292.014,293.666L298.014,293.643L308.889,289.535C321.122,284.913 331.949,281.609 343.014,279.119L350.514,277.432L364.226,277.246L390.846,279.403L396.87,280.577C436.17,287.941 461.841,310.355 470.528,351.197L470.155,360.584L471.022,369.583L470.247,378.786L468.619,385.974C467.51,392.157 467.403,404.074 465.221,411.667L463.571,414.773L470.253,414.93C473.274,415.847 476.665,417.253 477.79,418.055L479.836,419.511L480.608,422.292L481.38,425.072L481.386,481.322L480.075,483.893C479.354,485.308 477.811,487.164 476.648,488.018L474.532,489.572L409.764,490.322L406.388,492.053C404.532,493.005 398.964,496.812 394.014,500.514C372.268,516.774 341.608,534.064 313.133,546.124L300.565,551.447L291.263,551.366L287.139,549.993C282.037,548.298 275.633,545.558 261.789,539.149C237.449,527.881 219.148,517.172 197.139,501.315C191.158,497.006 184.745,492.769 182.889,491.9L179.514,490.32L147.264,489.945C147.264,489.945 120.768,489.74 115.014,489.57C114.226,489.547 113.384,489.254 112.739,488.923C112.123,488.606 111.582,488.056 111.147,487.584C110.442,486.821 109.859,486.08 109.469,485.185C109.003,484.119 108.405,482.569 108.354,481.185C108.154,475.8 108.271,452.875 108.271,452.875L108.278,423.57L109.62,421.099C111.386,417.848 114.519,416.031 120.36,414.87M311.211,540.111C333.458,531.575 385.485,501.411 399.231,489.079L399.948,488.435L396.231,484.622C392.928,481.233 384.962,474.105 362.601,454.528C358.937,451.32 355.471,448.695 354.899,448.695C352.869,448.695 320.482,465.947 304.014,475.8L297.264,479.839L297.068,511.329C296.96,528.649 297.029,543.228 297.221,543.727L297.569,544.635L301.542,543.466C303.726,542.823 308.078,541.313 311.211,540.111L311.211,540.111ZM174.126,483.945C174.126,483.945 166.463,475.872 158.482,467.07C149.685,457.369 142.823,447.896 136.389,436.57C133.295,431.124 126.95,420.977 126.95,420.977C126.95,420.977 123.301,420.914 121.996,420.945C120.89,420.971 119.596,420.879 118.683,421.129C117.869,421.351 117.081,421.813 116.518,422.441C115.772,423.273 114.704,424.807 114.204,426.12C113.704,427.434 113.52,430.32 113.52,430.32L113.517,453.195C113.517,453.195 113.38,471.59 113.514,476.07C113.555,477.432 113.941,478.97 114.323,480.076C114.652,481.029 115.129,482.11 115.807,482.709C116.485,483.308 117.49,483.496 118.393,483.671C119.386,483.863 120.639,483.851 121.764,483.86C126.31,483.899 145.67,483.902 145.67,483.902L174.126,483.945ZM320.752,459.58C342.871,447.55 346.389,445.235 346.389,442.706L346.389,441.277L339.077,434.993C329.32,426.608 305.647,408.484 302.062,406.655L299.199,405.195L292.683,405.195L289.115,407.458C286.026,409.416 273.404,418.984 249.733,437.31L243.452,442.172L245.233,443.573C251.075,448.167 270.252,459.849 285.264,467.957L292.764,472.007L299.036,471.391L320.752,459.58ZM251.983,427.601C304.424,386.662 359.771,353.432 375.488,353.448C380.432,353.453 390.055,362.388 416.677,391.695C430.44,406.845 435.415,411.576 439.565,413.46L442.764,414.912L457.188,414.946L461.502,414.879C464.072,407.667 463.277,395.286 465.296,383.656L467.221,372.571L466.747,367.321C462.657,321.974 458.038,297.131 416.625,285.99C414.975,285.546 392.79,283.341 387.626,282.937L378.238,282.203L364.376,282.938L350.514,283.672L344.514,285.093C333.217,287.767 321.959,288.45 311.1,292.685C277.901,305.633 246.492,328.896 213.408,358.67C198.19,372.366 197.339,373.876 198.112,385.813L198.543,392.462L201.147,398.486C207.039,412.113 217.886,425.854 229.642,434.582C237.118,440.133 235.138,440.752 251.983,427.602L251.983,427.601Z" style="fill:rgb(239,40,59);fill-rule:nonzero;"/>
    </g>
    <g transform="matrix(0.969834,0,0,1,3.57794,0.0329916)">
        <path d="M117.402,128.048C117.402,128.048 250.532,-20.187 395.146,7.823C536.481,35.197 481.583,184.919 481.583,184.919" style="fill:none;stroke:rgb(239,40,59);stroke-width:8.8px;"/>
    </g>
</svg>
