<?xml version="1.0" encoding="UTF-8" standalone="no"?>
<!DOCTYPE svg PUBLIC "-//W3C//DTD SVG 1.1//EN" "http://www.w3.org/Graphics/SVG/1.1/DTD/svg11.dtd">
<svg width="100%" height="100%" viewBox="0 0 501 499" version="1.1" xmlns="http://www.w3.org/2000/svg" xmlns:xlink="http://www.w3.org/1999/xlink" xml:space="preserve" xmlns:serif="http://www.serif.com/" style="fill-rule:evenodd;clip-rule:evenodd;stroke-linejoin:round;stroke-miterlimit:2;">
    <g id="Caduceus" transform="matrix(1,0,0,1,-5.81329,-6.77333)">
        <path d="M191.093,164.48C204.187,164.444 215.09,174.966 215.52,188.053L231.52,188.053L231.52,151.787L229.333,151.787C218.225,151.77 208.239,144.814 204.373,134.4L201.44,126.453C191.099,98.202 164.058,79.305 133.973,79.307L5.813,79.307C5.813,79.324 5.813,79.342 5.813,79.36C5.813,99.226 22.161,115.573 42.027,115.573L126.56,115.573C129.486,115.573 131.893,117.981 131.893,120.907C131.893,123.832 129.486,126.24 126.56,126.24L43.627,126.24C48.316,141.395 62.43,151.796 78.293,151.787L162.773,151.787C165.699,151.787 168.107,154.194 168.107,157.12C168.107,160.046 165.699,162.453 162.773,162.453L80,162.453C84.639,177.62 98.753,188.038 114.613,188L134.667,188C149.578,172.95 169.908,164.476 191.093,164.48Z" style="fill-rule:nonzero;"/>
        <path d="M377.867,79.307C347.782,79.305 320.741,98.202 310.4,126.453L307.467,134.4C303.621,144.76 293.717,151.704 282.667,151.787L280.907,151.787L280.907,188.053L296.907,188.053C297.336,174.966 308.239,164.444 321.333,164.48C342.545,164.476 362.898,172.971 377.813,188.053L397.867,188.053C413.546,187.865 427.399,177.497 432,162.507L349.227,162.507C346.301,162.507 343.893,160.099 343.893,157.173C343.893,154.248 346.301,151.84 349.227,151.84L433.707,151.84C449.57,151.849 463.684,141.448 468.373,126.293L385.44,126.293C382.514,126.293 380.107,123.886 380.107,120.96C380.107,118.034 382.514,115.627 385.44,115.627L469.973,115.627C489.839,115.627 506.187,99.279 506.187,79.413C506.187,79.396 506.187,79.378 506.187,79.36L377.867,79.307Z" style="fill-rule:nonzero;"/>
        <path d="M241.92,89.76L241.92,274.507L270.08,274.507L270.08,89.76C260.906,92.575 251.094,92.575 241.92,89.76Z" style="fill-rule:nonzero;"/>
        <rect x="241.92" y="323.467" width="28.16" height="34.773" style="fill-rule:nonzero;"/>
        <path d="M241.92,505.227L270.08,505.227L270.08,407.147L241.92,407.04L241.92,505.227Z" style="fill-rule:nonzero;"/>
        <circle cx="256" cy="44" r="37.227"/>
        <path d="M320.907,175.147C320.621,175.129 320.335,175.12 320.049,175.12C312.471,175.12 306.235,181.356 306.235,188.933C306.235,196.511 312.471,202.747 320.049,202.747C320.335,202.747 320.621,202.738 320.907,202.72C320.917,202.72 320.926,202.72 320.936,202.72C343.553,202.72 362.163,221.33 362.163,243.947C362.163,259.028 353.887,272.952 340.64,280.16C349.657,284.091 357.677,289.996 364.107,297.44C380.304,284.399 389.739,264.688 389.739,243.893C389.739,206.18 358.706,175.147 320.992,175.147C320.964,175.147 320.935,175.147 320.907,175.147Z" style="fill-rule:nonzero;"/>
        <path d="M314.08,285.173L191.093,285.173C168.477,285.173 149.867,266.563 149.867,243.947C149.867,221.33 168.477,202.72 191.093,202.72C191.379,202.738 191.665,202.747 191.951,202.747C199.529,202.747 205.765,196.511 205.765,188.933C205.765,181.356 199.529,175.12 191.951,175.12C191.665,175.12 191.379,175.129 191.093,175.147C190.455,175.129 189.816,175.12 189.177,175.12C151.405,175.12 120.324,206.202 120.324,243.973C120.324,281.745 151.405,312.827 189.177,312.827C189.816,312.827 190.455,312.818 191.093,312.8L314.08,312.8C329.053,313.374 341.058,325.849 341.058,340.833C341.058,353.591 332.355,364.819 320,368C328.658,373.374 335.96,380.675 341.333,389.333C358.847,379.485 369.723,360.892 369.723,340.8C369.723,310.289 344.644,285.17 314.133,285.12L314.08,285.173Z" style="fill-rule:nonzero;"/>
        <path d="M326.453,387.413C319.099,379.128 309.413,373.253 298.667,370.56C289.333,368.267 289.653,368.907 198.133,368.907C182.752,368.852 170.127,356.181 170.127,340.8C170.127,333.946 172.634,327.323 177.173,322.187C167.755,320.5 158.72,317.121 150.507,312.213C145.24,320.834 142.47,330.751 142.507,340.853C142.507,388.427 182.4,396.107 226.987,396.32C246.133,396.32 210.613,396.32 286.933,396.64C302.002,397.056 314.171,409.566 314.171,424.64C314.171,440.006 301.526,452.651 286.16,452.651C285.902,452.651 285.644,452.647 285.387,452.64L280.96,452.64L280.96,480L285.387,480C315.711,479.725 340.509,454.701 340.509,424.376C340.509,410.753 335.505,397.594 326.453,387.413Z" style="fill-rule:nonzero;"/>
        <path d="M205.493,406.293C195.611,405.723 185.825,404.041 176.32,401.28C173.031,408.516 171.329,416.372 171.329,424.32C171.329,454.796 196.351,479.9 226.827,480L231.253,480L231.253,452.64L226.827,452.64C211.427,452.612 198.771,439.933 198.771,424.533C198.771,417.849 201.155,411.379 205.493,406.293Z" style="fill-rule:nonzero;"/>
    </g>
</svg>
