<?xml version="1.0" encoding="UTF-8" standalone="no"?>
<!DOCTYPE svg PUBLIC "-//W3C//DTD SVG 1.1//EN" "http://www.w3.org/Graphics/SVG/1.1/DTD/svg11.dtd">
<svg width="100%" height="100%" viewBox="0 0 2667 626" version="1.1" xmlns="http://www.w3.org/2000/svg" xmlns:xlink="http://www.w3.org/1999/xlink" xml:space="preserve" xmlns:serif="http://www.serif.com/" style="fill-rule:evenodd;clip-rule:evenodd;stroke-linejoin:round;stroke-miterlimit:2;">
    <rect id="Artboard1" x="0" y="0" width="2666.67" height="625.333" style="fill:none;"/>
    <clipPath id="_clip1">
        <rect id="Artboard11" serif:id="Artboard1" x="0" y="0" width="2666.67" height="625.333"/>
    </clipPath>
    <g clip-path="url(#_clip1)">
        <g id="Image">
            <path id="path1" d="M0,625.333L0,0L602.333,0L603.167,4.167C604.241,9.536 604.264,620.427 603.191,623.224C602.456,625.139 574.607,625.333 301.191,625.333L0,625.333ZM459.315,544.571C489.016,541.828 503.288,537.673 516.667,527.876C524.824,521.902 527.917,518.503 532.582,510.387C543.567,491.272 545.609,478.643 546.268,425.742L546.803,382.817L543.634,380.741C541.891,379.599 536.01,377.801 530.566,376.746C525.121,375.691 516.467,373.922 511.333,372.815C506.2,371.708 498.7,370.157 494.667,369.368C490.633,368.579 483.733,367.099 479.333,366.079C447.168,358.624 445.699,358.377 442.778,359.94C439.887,361.488 439.884,361.538 440.069,408.217C440.173,434.419 439.727,455.473 439.054,456.146C438.354,456.846 380.956,457.204 301.26,457.006L164.667,456.667L164.667,168.667L301.26,168.327C382.623,168.125 438.348,168.481 439.075,169.208C439.768,169.902 440.202,187.666 440.08,210.384C439.885,246.433 440.087,250.563 442.137,252.614C443.814,254.291 445.667,254.674 449.205,254.078C451.842,253.633 459.1,252.421 465.333,251.385C471.567,250.348 480.567,248.807 485.333,247.961C490.1,247.114 499.1,245.632 505.333,244.667C511.567,243.701 522.559,241.995 529.76,240.875C536.961,239.755 543.711,238.126 544.76,237.256C547.93,234.625 547.377,171.678 544.023,153.333C539.636,129.345 532.793,114.958 520.873,104.667C509.67,94.996 499.916,90.82 478.902,86.699C465.541,84.079 460.354,84 302.235,83.994C126.847,83.987 130.909,83.843 108.392,90.872C89.526,96.762 77.459,107.162 68.406,125.333C66.762,128.633 65.398,132.263 65.375,133.4C65.352,134.537 64.79,136.037 64.126,136.733C62.989,137.926 61.641,144.891 58.567,165.451C57.747,170.94 57.407,229.223 57.661,320.785C58.091,475.407 57.892,470.232 64.233,492.17C71.726,518.092 86.991,532.521 115.333,540.47C133.677,545.616 156.156,546.354 299.315,546.514C414.526,546.642 440.282,546.329 459.315,544.571ZM689.006,316.333C688.819,146.383 689.01,5.833 689.429,4L690.192,0.667L988.881,0.33L1287.57,-0.006L1289.12,3.393C1290.28,5.943 1290.67,83.545 1290.67,313.954C1290.67,482.893 1290.3,622.064 1289.86,623.224C1289.12,625.139 1261.39,625.333 989.196,625.333L689.345,625.333L689.006,316.333ZM845.371,543.963C848.032,541.301 848.073,539.944 847.96,457.961C847.897,412.147 848.215,374.064 848.668,373.331C849.19,372.486 866.553,372 896.226,372L942.961,372L948.48,377.676C951.516,380.799 957.569,387.849 961.931,393.343C966.293,398.838 970.225,403.633 970.668,404C971.415,404.618 979.861,415.101 1001.22,441.923C1005.93,447.832 1010.16,452.967 1010.63,453.333C1011.41,453.949 1019.3,463.735 1041.22,491.256C1045.93,497.165 1050.16,502.3 1050.63,502.667C1051.1,503.033 1055.01,507.833 1059.33,513.333C1063.65,518.833 1067.59,523.633 1068.09,524C1068.58,524.367 1072.6,529.229 1077.02,534.806C1083.2,542.597 1086.05,545.144 1089.36,545.806C1095.67,547.068 1229.7,546.818 1231.71,545.54C1234.41,543.828 1232.28,540.265 1222.76,530.604C1217.94,525.71 1202.32,509.472 1188.04,494.519C1173.77,479.567 1153.6,458.633 1143.22,448C1132.84,437.367 1117.52,421.524 1109.17,412.795C1100.83,404.065 1089.02,391.866 1082.92,385.687C1076.83,379.507 1072.05,373.854 1072.29,373.125C1072.57,372.295 1083.62,371.855 1101.88,371.948C1133.51,372.108 1162.03,370.082 1169.16,367.17C1171.64,366.16 1174.62,365.333 1175.79,365.333C1176.97,365.333 1182.27,363.16 1187.57,360.503C1206.23,351.159 1218.17,335.461 1224.02,312.576C1226.5,302.877 1226.67,297.658 1226.67,227.871C1226.67,159.622 1226.46,152.636 1224.15,142.978C1222.77,137.19 1221.06,131.302 1220.35,129.894C1219.64,128.485 1217.92,124.944 1216.53,122.023C1213.13,114.876 1198.09,100.012 1190.67,96.463C1177.37,90.099 1175.54,89.371 1170.87,88.544C1168.19,88.071 1162.72,86.855 1158.72,85.842C1148.69,83.306 746.796,83.071 744.267,85.6C743.035,86.832 742.667,139.568 742.667,314.858L742.667,542.515L745.63,544.591C748.176,546.374 755.216,546.667 795.63,546.667C841.106,546.667 842.756,546.577 845.371,543.963ZM849.43,290.117C848.284,288.736 847.877,271.935 847.903,227.117L847.939,166L972.969,165.645C1096.58,165.295 1098.08,165.322 1105.33,168.049C1114,171.308 1117.04,173.657 1121.04,180.157C1123.94,184.88 1124,185.884 1124,227.92L1124,270.858L1120.7,276.429C1115.8,284.71 1110.56,287.576 1096,289.936C1077.81,292.885 851.865,293.05 849.43,290.117ZM1376.74,624.113C1375.71,622.457 1375.81,6.782 1376.83,3L1377.64,0L1676.68,0C1948.13,0 1975.79,0.195 1976.52,2.109C1976.97,3.269 1977.33,143.969 1977.33,314.776L1977.33,625.333L1677.41,625.333C1497.48,625.333 1377.19,624.845 1376.74,624.113ZM1851.33,543.718C1859.4,542.656 1867.31,541.084 1868.91,540.226C1870.51,539.369 1872.9,538.667 1874.21,538.667C1875.52,538.667 1881.08,536.421 1886.56,533.675C1897.21,528.343 1909.6,517.087 1913.57,509.141C1917.81,500.654 1919.91,495.314 1921.37,489.333C1922.18,486.033 1923.52,480.633 1924.35,477.333C1926.46,468.983 1926.46,339.017 1924.35,330.667C1923.52,327.367 1922.18,322.037 1921.37,318.822C1919.22,310.243 1911.29,294.692 1906.32,289.333C1893.14,275.105 1878.71,268.697 1850.77,264.67C1839.06,262.983 1813.45,262.667 1688.7,262.667C1575.24,262.667 1540.16,262.292 1538.93,261.067C1537.75,259.886 1537.34,247.917 1537.35,215.4C1537.36,191.163 1537.73,169.981 1538.17,168.327L1538.98,165.321L1682.49,165.661L1826,166L1826.67,191.333L1827.33,216.667L1830.6,217.127C1832.39,217.38 1835.99,216.944 1838.6,216.157C1841.2,215.371 1848.73,213.496 1855.33,211.99C1861.93,210.484 1870.33,208.417 1874,207.397C1880.35,205.631 1883.52,204.872 1902,200.691C1917.05,197.285 1919.93,196.068 1920.76,192.758C1921.89,188.261 1919.13,152.773 1916.92,143.333C1915.15,135.809 1907.99,118.802 1905.19,115.498C1893.91,102.193 1887.11,97.437 1870,90.891C1867.8,90.049 1859.81,88.154 1852.24,86.68C1838.93,84.089 1833.28,84 1682.6,84C1517.13,84 1518.46,83.955 1497.33,90.262C1485.21,93.882 1472.11,101.868 1464.99,109.99C1461.32,114.169 1453.62,128.237 1452.58,132.667C1452.06,134.867 1451.17,137.267 1450.6,138C1449.59,139.298 1447.64,151.031 1445.28,170C1444.64,175.133 1444.12,197.033 1444.12,218.667C1444.12,240.3 1444.64,262.2 1445.28,267.333C1447.66,286.484 1449.6,298.04 1450.63,299.333C1451.21,300.067 1452.1,302.558 1452.59,304.87C1455.05,316.395 1465.64,330.625 1477.33,338.122C1491.2,347.015 1503.17,350.241 1531.33,352.682C1549.5,354.256 1581.49,354.641 1692.56,354.62C1770,354.606 1831.64,355.109 1832.29,355.761C1834.23,357.694 1833.59,455.012 1831.63,456.257C1830.74,456.83 1760.4,457.157 1675.33,456.983L1520.67,456.667L1520.31,430.333L1519.94,404L1514.06,404C1510.82,404 1506.49,404.65 1504.42,405.444C1502.36,406.239 1496.17,407.766 1490.67,408.839C1457.16,415.373 1432.92,420.901 1429,422.903C1424,425.456 1427.12,475.289 1433.41,493.333C1438.99,509.337 1447.57,521.695 1457.79,528.451C1465.09,533.275 1476.15,538.667 1478.75,538.667C1479.61,538.667 1483.09,539.592 1486.49,540.722C1501.7,545.783 1525.09,546.41 1684,546.023C1808.04,545.72 1839.42,545.288 1851.33,543.718ZM2063.56,624.444C2062.45,623.338 2062.4,7.129 2063.51,3L2064.31,0L2363.58,0C2621.18,0 2663.12,0.265 2664.76,1.905C2666.4,3.545 2666.67,47.022 2666.67,314.571L2666.67,625.333L2365.56,625.333C2199.94,625.333 2064.04,624.933 2063.56,624.444ZM2412,545.362C2413.76,544.251 2414.08,521.301 2414.67,356.382L2415.33,168.667L2513.28,168.325C2567.14,168.136 2611.72,167.484 2612.33,166.875C2613.81,165.389 2613.84,86.644 2612.36,85.16C2611.7,84.499 2503.67,84.139 2363.26,84.33L2115.33,84.667L2114.96,123.333C2114.75,144.6 2114.92,163.35 2115.32,165L2116.05,168L2211.92,168C2264.64,168 2308.73,168.364 2309.89,168.809C2311.8,169.542 2312,187.28 2312,356.067L2312,542.515L2314.96,544.591C2317.51,546.373 2324.43,546.664 2363.96,546.646C2390.64,546.634 2410.84,546.094 2412,545.362Z" style="fill:rgb(0,47,103);fill-rule:nonzero;"/>
        </g>
    </g>
</svg>
