<?xml version="1.0" encoding="UTF-8" standalone="no"?>
<!DOCTYPE svg PUBLIC "-//W3C//DTD SVG 1.1//EN" "http://www.w3.org/Graphics/SVG/1.1/DTD/svg11.dtd">
<svg width="100%" height="100%" viewBox="0 0 282 420" version="1.1" xmlns="http://www.w3.org/2000/svg" xmlns:xlink="http://www.w3.org/1999/xlink" xml:space="preserve" xmlns:serif="http://www.serif.com/" style="fill-rule:evenodd;clip-rule:evenodd;stroke-linejoin:round;stroke-miterlimit:2;">
    <rect id="Artboard1" x="0" y="0" width="281.107" height="420" style="fill:none;"/>
    <g>
        <g id="layer1">
            <path id="path2440" d="M146.705,0C132.223,-0.327 117.261,1.365 101.939,5.194C31.086,22.892 -48.226,114.037 38.377,219.13L90.068,281.703L104.66,299.51C114.454,311.154 130.481,310.947 142.253,301.242C154.085,291.487 157.449,275.49 147.694,263.648C147.682,263.632 143.558,258.641 141.759,256.476L142.006,256.476C138.27,251.981 137.459,251.228 133.597,246.583C114.889,224.084 93.53,198.107 93.53,198.107C55.927,152.471 72.706,96.091 123.704,64.057C168.638,35.832 251.096,45.913 279.519,92.252C261.618,39.418 209.462,1.419 146.705,0ZM157.093,110.307C150.411,110.079 143.436,112.627 137.554,117.479C125.702,127.244 122.368,143.26 132.113,155.073C132.133,155.102 133.31,156.567 135.328,159.03C157.745,185.962 187.514,222.098 187.514,222.098C225.127,267.734 208.339,323.867 157.34,355.9C112.416,384.115 29.948,374.015 1.525,327.705C23.557,392.702 97.399,435.193 179.105,414.764C249.978,397.036 329.271,306.149 242.667,201.075L182.073,127.867L175.148,119.211C170.251,113.389 163.774,110.534 157.093,110.307Z" style="fill-rule:nonzero;"/>
        </g>
    </g>
</svg>
