<svg id="Layer_1" height="512" viewBox="0 0 48 48" width="512" xmlns="http://www.w3.org/2000/svg"><path d="m46 29.822-4.716 2.723.788.455h1.928v1.113l1.975 1.14c.004-.086.025-.167.025-.253z"/><path d="m20.002 38h-2.002v-5h4.271c.189-.156.373-.32.582-.455-1.304-.838-2.236-2.113-2.64-3.621-.431-1.606-.21-3.284.622-4.723 1.106-1.918 3.175-3.11 5.396-3.11 1.087 0 2.161.288 3.104.833 2.008 1.16 3.161 3.29 3.111 5.519l2.837 1.638 8.216-4.743c.455-.263.974-.402 1.499-.402.349 0 .681.081 1.001.195v-13.131c0-2.761-2.239-5-5-5h-33.999c-2.761 0-5 2.239-5 5v24c0 2.761 2.239 5 5 5h13.418c-.249-.644-.392-1.317-.416-2zm18.998-30h2c1.654 0 3 1.346 3 3v2h-5zm-7 0h5v5h-5zm-7 0h5v5h-5zm-7 0h5v5h-5zm-9 30h-2c-1.654 0-3-1.346-3-3v-2h5zm0-25h-5v-2c0-1.654 1.346-3 3-3h2zm7 25h-5v-5h5zm0-25h-5v-5h5z"/><path d="m37 37v1h-4.568c-.024.689-.153 1.365-.396 2h8.964c.348 0 .688-.036 1.016-.104z"/><path d="m45.5 37.289-8.216-4.743 8.216-4.743c.478-.276.642-.888.366-1.366s-.888-.642-1.366-.366l-9.216 5.321-5.007-2.891c.534-1.825-.223-3.851-1.941-4.843-2.017-1.164-4.605-.471-5.769 1.546-.564.977-.714 2.115-.422 3.205s.991 2 1.968 2.564c.663.383 1.389.565 2.105.565 1.138 0 2.252-.462 3.059-1.306l4.008 2.314-4.007 2.313c-1.314-1.375-3.447-1.732-5.165-.74-.977.564-1.676 1.475-1.968 2.564s-.142 2.228.422 3.205 1.475 1.676 2.564 1.968c.364.097.733.146 1.1.146.732 0 1.454-.192 2.105-.568 1.718-.992 2.475-3.018 1.941-4.843l5.007-2.891 9.216 5.321c.158.091.329.134.499.134.346 0 .682-.179.867-.5.276-.478.112-1.09-.366-1.366zm-18.7-7.827c-.574.154-1.173.075-1.687-.222-1.062-.613-1.427-1.975-.814-3.037.411-.712 1.16-1.111 1.929-1.111.377 0 .759.096 1.108.297 1.062.613 1.427 1.976.814 3.037-.297.514-.776.882-1.35 1.036zm.536 10.24c-1.062.613-2.424.248-3.037-.814-.297-.514-.376-1.113-.222-1.687s.522-1.053 1.036-1.35c.349-.202.731-.297 1.108-.297.769 0 1.518.399 1.929 1.111.613 1.062.248 2.424-.814 3.037z"/></svg>