<?xml version="1.0" encoding="UTF-8" standalone="no"?>
<!DOCTYPE svg PUBLIC "-//W3C//DTD SVG 1.1//EN" "http://www.w3.org/Graphics/SVG/1.1/DTD/svg11.dtd">
<svg width="100%" height="100%" viewBox="0 0 76 87" version="1.1" xmlns="http://www.w3.org/2000/svg" xmlns:xlink="http://www.w3.org/1999/xlink" xml:space="preserve" xmlns:serif="http://www.serif.com/" style="fill-rule:evenodd;clip-rule:evenodd;stroke-linejoin:round;stroke-miterlimit:2;">
    <g transform="matrix(1,0,0,1,32.4641,76.61)">
        <path d="M0,-67.181C0.17,-67.984 0.299,-68.888 0.299,-69.848C0.299,-70.81 0.165,-71.768 -0.101,-72.705C0.79,-71.865 1.333,-70.92 1.516,-69.888L1.518,-69.881C1.373,-69.075 0.771,-68.173 0,-67.181M9.942,-56.085C8.483,-56.678 6.796,-56.991 5.044,-56.993C4.352,-56.991 3.665,-56.941 3.002,-56.844C2.578,-57.787 2.363,-58.709 2.363,-59.587C2.363,-61.76 3.588,-63.634 4.841,-65.368C5.245,-65.931 5.688,-66.499 6.118,-67.048L6.573,-67.634C6.926,-68.093 7.283,-68.56 7.621,-69.035C7.816,-69.309 8.008,-69.588 8.189,-69.872C8.42,-70.23 8.626,-70.579 8.821,-70.941C9.089,-71.439 9.311,-71.925 9.489,-72.41C9.7,-71.5 9.807,-70.586 9.807,-69.682C9.807,-69.348 9.794,-69.041 9.77,-68.745C9.735,-68.263 9.643,-67.794 9.484,-67.273C9.383,-66.938 9.26,-66.601 9.105,-66.242C8.907,-65.784 8.672,-65.346 8.49,-65.016C8.313,-64.692 8.127,-64.379 7.94,-64.071C7.761,-63.771 7.581,-63.485 7.407,-63.208C6.706,-62.093 6.102,-61.129 6.067,-60.153C6.067,-60.009 6.082,-59.878 6.114,-59.74C6.247,-59.233 6.426,-58.554 7.275,-58.452C7.756,-58.467 8.081,-58.696 8.295,-59.129C8.43,-59.415 8.497,-59.737 8.497,-60.089C8.497,-60.546 8.386,-61.026 8.173,-61.488C8.479,-62.029 8.882,-62.666 9.271,-63.284C9.495,-63.652 9.744,-64.071 9.987,-64.526C10.888,-62.891 11.344,-61.364 11.342,-59.979C11.336,-58.565 10.878,-57.289 9.942,-56.085M-0.14,-55.965C-0.731,-56.678 -1.703,-58.179 -1.701,-60.313C-1.701,-60.604 -1.684,-60.89 -1.649,-61.167C-1.466,-62.751 -0.416,-64.178 0.735,-65.622L0.968,-65.919C2.011,-67.245 3.09,-68.617 3.109,-70.263C3.11,-70.456 3.098,-70.617 3.071,-70.771C2.985,-71.395 2.943,-71.948 2.943,-72.452C2.956,-74.155 3.404,-75.499 4.342,-76.61C4.335,-76.486 4.333,-76.366 4.335,-76.248C4.346,-73.935 5.452,-71.748 6.458,-70.07C5.973,-69.372 5.444,-68.693 4.888,-67.977C4.447,-67.411 4.003,-66.839 3.576,-66.252C2.178,-64.306 0.813,-62.189 0.811,-59.587C0.811,-58.6 1.028,-57.571 1.457,-56.523C0.902,-56.374 0.368,-56.187 -0.14,-55.965M22.445,-53.188C22.394,-53.331 22.332,-53.472 22.262,-53.61C22.004,-54.118 21.63,-54.565 21.17,-54.915L27.468,-71.163C27.604,-71.182 27.742,-71.192 27.881,-71.192C28.887,-71.192 29.878,-70.712 30.601,-69.874C31.196,-69.187 31.544,-68.332 31.587,-67.455L22.445,-53.188ZM-21.5,-67.455C-21.457,-68.328 -21.108,-69.184 -20.512,-69.874C-19.788,-70.711 -18.795,-71.19 -17.787,-71.19C-17.65,-71.19 -17.513,-71.181 -17.378,-71.163L-11.079,-54.916C-11.536,-54.568 -11.911,-54.121 -12.174,-53.612C-12.244,-53.472 -12.306,-53.33 -12.357,-53.186L-21.5,-67.455ZM23.735,-50.006C23.396,-50.262 23.021,-50.464 22.627,-50.603L32.677,-66.293C33.717,-66.166 34.676,-65.515 35.268,-64.524C35.836,-63.574 35.991,-62.457 35.697,-61.446L23.735,-50.006ZM-25.604,-61.443C-25.905,-62.453 -25.752,-63.571 -25.179,-64.523C-24.584,-65.515 -23.626,-66.166 -22.588,-66.293L-12.534,-50.604C-12.93,-50.466 -13.302,-50.266 -13.646,-50.006L-25.604,-61.443ZM-28.945,-54.937C-29.423,-55.924 -29.422,-57.139 -28.937,-58.206C-28.46,-59.246 -27.581,-59.993 -26.565,-60.232L-14.675,-48.865C-14.71,-48.814 -14.744,-48.761 -14.774,-48.702C-15.049,-48.17 -15.188,-47.597 -15.188,-46.995C-15.188,-46.987 -15.187,-46.979 -15.187,-46.971L-28.945,-54.937ZM25.276,-46.997C25.276,-47.593 25.138,-48.166 24.866,-48.702C24.836,-48.761 24.802,-48.813 24.767,-48.864L36.652,-60.232C37.669,-59.999 38.547,-59.252 39.022,-58.206C39.508,-57.147 39.512,-55.933 39.037,-54.936L25.275,-46.967C25.275,-46.977 25.276,-46.987 25.276,-46.997M25.379,-43.605C25.199,-44.062 24.942,-44.475 24.622,-44.822L39.86,-53.642C40.69,-53.234 41.332,-52.455 41.635,-51.484C41.988,-50.349 41.825,-49.129 41.199,-48.195L25.379,-43.605ZM-31.11,-48.195C-31.735,-49.13 -31.897,-50.35 -31.543,-51.483C-31.243,-52.455 -30.601,-53.233 -29.77,-53.642L-14.531,-44.82C-14.852,-44.477 -15.109,-44.065 -15.29,-43.605L-31.11,-48.195ZM25.156,-40.353C25.465,-40.886 25.635,-41.478 25.656,-42.097L41.358,-46.655C42.103,-46.043 42.547,-45.027 42.556,-43.902C42.558,-42.864 42.184,-41.871 41.525,-41.161L25.156,-40.353ZM-31.432,-41.155C-32.095,-41.874 -32.47,-42.868 -32.464,-43.903C-32.462,-45.019 -32.018,-46.035 -31.269,-46.654L-15.573,-42.063C-15.545,-41.459 -15.371,-40.874 -15.069,-40.353L-31.432,-41.155ZM25.452,-36.982C25.441,-37.635 25.262,-38.257 24.928,-38.819L41.578,-39.632C42.119,-38.939 42.359,-37.986 42.238,-36.992C42.094,-35.821 41.479,-34.775 40.582,-34.17L25.452,-36.982ZM-30.493,-34.17C-31.387,-34.774 -32.002,-35.82 -32.149,-36.993C-32.27,-37.985 -32.028,-38.938 -31.483,-39.632L-14.84,-38.819C-15.175,-38.257 -15.354,-37.632 -15.366,-36.983L-30.493,-34.17ZM-28.434,-28.223C-29.312,-28.614 -30.008,-29.481 -30.267,-30.517C-30.459,-31.296 -30.373,-32.068 -30.025,-32.705L-15.074,-35.483C-14.858,-34.962 -14.525,-34.491 -14.105,-34.108L-28.434,-28.223ZM24.194,-34.108C24.616,-34.492 24.949,-34.965 25.164,-35.488L40.119,-32.699C40.464,-32.066 40.549,-31.297 40.357,-30.516C40.099,-29.478 39.399,-28.611 38.518,-28.222L24.194,-34.108ZM24.001,-30.315C24.224,-30.802 24.337,-31.32 24.337,-31.856C24.337,-32.041 24.321,-32.228 24.292,-32.415L37.567,-26.966C37.83,-26.258 37.763,-25.412 37.378,-24.625C36.972,-23.797 36.257,-23.143 35.447,-22.855L24.001,-30.315ZM-25.356,-22.854C-26.166,-23.143 -26.88,-23.794 -27.287,-24.62C-27.674,-25.41 -27.742,-26.256 -27.48,-26.963L-14.199,-32.416C-14.228,-32.231 -14.242,-32.044 -14.242,-31.856C-14.247,-31.321 -14.134,-30.799 -13.904,-30.302L-25.356,-22.854ZM-21.627,-18.376C-22.534,-18.522 -23.394,-19.092 -23.949,-19.924C-24.297,-20.435 -24.491,-20.999 -24.519,-21.565L-12.99,-29.07C-12.54,-28.657 -12.005,-28.354 -11.42,-28.181C-11.428,-28.15 -11.435,-28.118 -11.441,-28.088L-21.627,-18.376ZM21.53,-28.091C21.523,-28.121 21.517,-28.151 21.51,-28.182C22.09,-28.354 22.623,-28.657 23.079,-29.071L34.608,-21.569C34.583,-21.004 34.39,-20.439 34.043,-19.924C33.48,-19.091 32.62,-18.521 31.717,-18.376L21.53,-28.091ZM-17.247,-14.93C-18.118,-14.959 -18.985,-15.343 -19.644,-15.992C-20.045,-16.379 -20.337,-16.836 -20.498,-17.326L-11.331,-26.062C-11.186,-25.633 -10.962,-25.227 -10.672,-24.869C-10.616,-24.802 -10.557,-24.743 -10.496,-24.687L-17.247,-14.93ZM20.585,-24.686C20.646,-24.743 20.704,-24.803 20.759,-24.869C21.051,-25.226 21.275,-25.631 21.422,-26.062L30.588,-17.325C30.429,-16.838 30.138,-16.381 29.739,-15.994C29.077,-15.343 28.207,-14.959 27.335,-14.93L20.585,-24.686ZM22.808,-12.124C22.64,-12.124 22.475,-12.136 22.314,-12.162L17.284,-23.369C17.279,-23.377 17.275,-23.385 17.271,-23.392C17.273,-23.407 17.276,-23.422 17.278,-23.436C17.406,-23.424 17.529,-23.417 17.648,-23.417C18.213,-23.417 18.787,-23.548 19.326,-23.797L26.054,-14.073C25.82,-13.605 25.45,-13.18 24.974,-12.836C24.332,-12.377 23.562,-12.124 22.808,-12.124M-12.72,-12.123C-13.473,-12.123 -14.241,-12.376 -14.884,-12.837C-15.358,-13.18 -15.729,-13.604 -15.963,-14.073L-9.236,-23.796C-8.697,-23.548 -8.123,-23.417 -7.562,-23.417C-7.433,-23.417 -7.31,-23.423 -7.19,-23.434C-7.188,-23.418 -7.186,-23.403 -7.183,-23.388C-7.189,-23.374 -12.22,-12.162 -12.22,-12.162C-12.382,-12.136 -12.55,-12.123 -12.72,-12.123M-8.302,-10.032C-8.74,-10.032 -9.191,-10.124 -9.604,-10.297C-10.155,-10.527 -10.609,-10.889 -10.901,-11.327L-6.326,-21.522C-6.238,-21.415 -6.147,-21.318 -6.053,-21.228C-5.736,-20.923 -5.369,-20.676 -4.96,-20.494L-7.141,-10.268C-7.484,-10.113 -7.883,-10.032 -8.302,-10.032M18.391,-10.032C17.972,-10.032 17.573,-10.113 17.229,-10.268L15.049,-20.495C15.466,-20.682 15.834,-20.929 16.145,-21.232C16.238,-21.319 16.328,-21.414 16.414,-21.519L20.993,-11.327C20.701,-10.889 20.246,-10.527 19.698,-10.298C19.282,-10.124 18.829,-10.032 18.391,-10.032M-3.433,-9.347C-3.523,-9.347 -3.615,-9.349 -3.708,-9.357C-4.462,-9.417 -5.13,-9.725 -5.564,-10.207L-3.445,-20.143C-3.398,-20.14 -3.352,-20.137 -3.304,-20.137C-2.66,-20.137 -2.004,-20.301 -1.406,-20.605L-1.896,-9.719C-2.348,-9.478 -2.887,-9.347 -3.433,-9.347M13.521,-9.347C12.969,-9.347 12.441,-9.475 11.984,-9.719L11.494,-20.603C12.092,-20.297 12.737,-20.137 13.391,-20.137C13.44,-20.137 13.488,-20.14 13.536,-20.144L15.655,-10.202C15.221,-9.723 14.553,-9.417 13.796,-9.357C13.704,-9.349 13.612,-9.347 13.521,-9.347M4.141,9.429L4.079,5.871C4.073,5.606 3.925,5.36 3.692,5.226C2.807,4.735 2.281,3.873 2.281,2.918C2.281,1.987 2.777,1.137 3.609,0.642C3.848,0.501 3.992,0.246 3.985,-0.024C3.879,-6.03 3.759,-10.798 3.523,-14.541C3.393,-16.646 3.234,-18.266 3.041,-19.493C2.8,-20.925 2.592,-21.752 2.125,-22.311C1.583,-22.918 0.964,-23.236 0.329,-23.236C-0.537,-23.219 -1.121,-22.703 -1.471,-22.394C-2,-21.911 -2.641,-21.658 -3.304,-21.658C-3.932,-21.658 -4.523,-21.893 -4.972,-22.321C-5.432,-22.757 -5.685,-23.348 -5.685,-23.984C-5.685,-24.083 -5.677,-24.182 -5.666,-24.281C-5.632,-24.551 -5.744,-24.82 -5.962,-24.978C-6.1,-25.079 -6.27,-25.135 -6.439,-25.135C-6.532,-25.135 -6.622,-25.118 -6.707,-25.087C-6.991,-24.99 -7.281,-24.94 -7.562,-24.94C-8.313,-24.946 -9.006,-25.267 -9.461,-25.822C-9.802,-26.24 -9.982,-26.742 -9.982,-27.276C-9.982,-27.672 -9.879,-28.062 -9.683,-28.405C-9.551,-28.644 -9.555,-28.925 -9.688,-29.16C-9.82,-29.39 -10.072,-29.536 -10.345,-29.54C-11.222,-29.569 -12.02,-30.048 -12.419,-30.789C-12.601,-31.12 -12.691,-31.479 -12.691,-31.856C-12.691,-32.461 -12.44,-33.058 -12.003,-33.496C-11.817,-33.685 -11.74,-33.945 -11.795,-34.193C-11.857,-34.446 -12.03,-34.641 -12.269,-34.736C-13.212,-35.1 -13.817,-35.956 -13.813,-36.916C-13.813,-37.707 -13.402,-38.437 -12.716,-38.879C-12.483,-39.025 -12.344,-39.288 -12.362,-39.549C-12.368,-39.805 -12.521,-40.053 -12.761,-40.182C-13.549,-40.611 -14.02,-41.375 -14.02,-42.228C-14.015,-42.993 -13.639,-43.686 -12.989,-44.132C-12.806,-44.25 -12.679,-44.462 -12.658,-44.695C-12.642,-44.922 -12.729,-45.142 -12.896,-45.304C-13.367,-45.748 -13.637,-46.363 -13.637,-46.995C-13.634,-47.358 -13.551,-47.702 -13.391,-48.012C-12.98,-48.814 -12.14,-49.311 -11.194,-49.311C-10.908,-49.311 -10.646,-49.469 -10.508,-49.722C-10.37,-49.988 -10.396,-50.303 -10.574,-50.527C-10.867,-50.931 -11.033,-51.424 -11.033,-51.906C-11.033,-52.26 -10.95,-52.603 -10.786,-52.925C-10.435,-53.61 -9.756,-54.089 -8.972,-54.203C-8.766,-54.232 -8.578,-54.345 -8.456,-54.513C-8.336,-54.678 -8.287,-54.877 -8.321,-55.075C-8.374,-55.445 -8.694,-55.72 -9.082,-55.72C-9.123,-55.72 -9.165,-55.716 -9.208,-55.709C-9.361,-55.687 -9.522,-55.653 -9.688,-55.607L-16.011,-71.927C-15.789,-73.041 -15.031,-74.068 -13.969,-74.688C-13.303,-75.077 -12.57,-75.283 -11.854,-75.283C-11.224,-75.283 -10.634,-75.124 -10.14,-74.824L-9.978,-73.827C-8.955,-67.519 -6.56,-52.75 -6.06,-50.455C-5.985,-50.127 -5.948,-49.838 -5.948,-49.593C-5.951,-48.996 -6.168,-48.651 -6.644,-47.896L-6.777,-47.684C-7.46,-46.59 -8.191,-45.251 -8.923,-42.877C-9.331,-41.551 -9.538,-40.087 -9.538,-38.523C-9.523,-33.342 -7.399,-28.416 -4.253,-26.264C-2.997,-25.421 -1.883,-25.012 -0.845,-25.012C0.329,-25.012 1.349,-25.599 1.975,-26.622C2.542,-27.536 2.83,-28.759 2.83,-30.256C2.83,-30.404 2.83,-30.548 2.824,-30.702C2.786,-31.69 2.774,-33.06 2.76,-34.646C2.746,-36.244 2.73,-38.055 2.683,-39.789C2.592,-42.724 2.459,-45.714 1.939,-47.273L1.944,-47.298L1.89,-47.437C1.864,-47.502 1.833,-47.576 1.798,-47.65L1.798,-47.697L1.762,-47.735C1.173,-48.832 0.032,-49.641 -1.72,-50.205C-1.739,-50.503 -1.75,-50.8 -1.75,-51.091C-1.75,-51.748 -1.701,-52.44 -1.604,-53.149C-0.351,-54.561 2.23,-55.47 5.009,-55.47L5.086,-55.47C6.748,-55.47 8.396,-55.131 9.727,-54.516C9.794,-54.471 9.873,-54.436 9.961,-54.412C10.675,-54.057 11.27,-53.624 11.688,-53.155C11.787,-52.463 11.839,-51.753 11.839,-51.095C11.839,-50.822 11.827,-50.523 11.805,-50.205C10.053,-49.64 8.914,-48.828 8.326,-47.73L8.31,-47.699L8.301,-47.666C8.27,-47.615 8.228,-47.517 8.185,-47.41C8.17,-47.372 8.161,-47.331 8.157,-47.286C7.678,-45.906 7.514,-43.39 7.406,-39.79C7.358,-38.051 7.343,-36.237 7.33,-34.636C7.316,-33.053 7.305,-31.686 7.267,-30.697C7.261,-30.551 7.257,-30.404 7.257,-30.262C7.257,-28.76 7.546,-27.534 8.115,-26.619C8.74,-25.599 9.764,-25.012 10.922,-25.012C11.968,-25.016 13.11,-25.437 14.336,-26.264C17.488,-28.417 19.612,-33.343 19.624,-38.522C19.624,-40.083 19.417,-41.548 19.01,-42.876C18.291,-45.223 17.553,-46.574 16.863,-47.683L16.716,-47.918C16.25,-48.662 16.038,-49.002 16.038,-49.593C16.038,-49.822 16.073,-50.103 16.146,-50.454C16.675,-52.868 19.332,-69.292 20.205,-74.69L20.227,-74.824C20.721,-75.124 21.31,-75.283 21.941,-75.283C22.658,-75.283 23.389,-75.077 24.054,-74.688C25.113,-74.075 25.874,-73.048 26.103,-71.928L19.776,-55.607C19.612,-55.653 19.453,-55.688 19.294,-55.712C19.254,-55.718 19.214,-55.721 19.175,-55.721C18.787,-55.721 18.465,-55.447 18.407,-55.071C18.377,-54.872 18.43,-54.666 18.552,-54.504C18.677,-54.338 18.86,-54.232 19.068,-54.205C19.844,-54.089 20.522,-53.609 20.876,-52.924C21.039,-52.604 21.122,-52.262 21.122,-51.909C21.122,-51.423 20.956,-50.932 20.655,-50.526L20.593,-50.442L20.593,-50.392C20.527,-50.228 20.5,-50.103 20.508,-49.997L20.497,-49.98L20.548,-49.833C20.641,-49.561 20.883,-49.365 21.181,-49.319L21.274,-49.311C21.281,-49.311 21.317,-49.311 21.366,-49.317C22.249,-49.299 23.072,-48.8 23.473,-48.013C23.641,-47.698 23.724,-47.358 23.724,-46.997C23.724,-46.364 23.454,-45.75 22.984,-45.313C22.813,-45.153 22.729,-44.928 22.749,-44.695C22.763,-44.476 22.882,-44.269 23.075,-44.135C23.717,-43.694 24.092,-43.016 24.109,-42.27L24.108,-42.228C24.108,-41.389 23.627,-40.606 22.853,-40.185C22.615,-40.064 22.458,-39.816 22.45,-39.542C22.437,-39.278 22.574,-39.02 22.808,-38.876C23.487,-38.443 23.898,-37.713 23.903,-36.925L23.903,-36.917C23.903,-35.953 23.299,-35.098 22.361,-34.74C22.109,-34.636 21.938,-34.437 21.886,-34.19C21.831,-33.946 21.907,-33.688 22.088,-33.5C22.535,-33.054 22.778,-32.472 22.778,-31.856C22.778,-31.477 22.688,-31.118 22.512,-30.787C22.112,-30.054 21.312,-29.575 20.424,-29.54C20.164,-29.536 19.915,-29.392 19.779,-29.163C19.643,-28.927 19.639,-28.646 19.769,-28.41C19.968,-28.066 20.071,-27.677 20.071,-27.276C20.071,-26.744 19.892,-26.242 19.55,-25.825C19.09,-25.266 18.396,-24.947 17.648,-24.947C17.355,-24.947 17.064,-24.994 16.785,-25.09C16.71,-25.119 16.619,-25.136 16.525,-25.136C16.354,-25.136 16.186,-25.079 16.051,-24.974C15.84,-24.821 15.723,-24.556 15.751,-24.288C15.766,-24.18 15.771,-24.08 15.771,-23.984C15.771,-23.343 15.52,-22.753 15.062,-22.323C14.611,-21.893 14.018,-21.658 13.391,-21.658C12.729,-21.658 12.087,-21.911 11.586,-22.369C11.203,-22.708 10.619,-23.224 9.762,-23.235C9.123,-23.236 8.504,-22.918 7.969,-22.318C7.496,-21.752 7.282,-20.89 7.05,-19.497C6.428,-15.549 6.242,-7.717 6.106,-0.032C6.103,0.246 6.242,0.495 6.481,0.638C7.323,1.132 7.824,1.984 7.824,2.918C7.824,3.867 7.283,4.753 6.411,5.228C6.168,5.362 6.015,5.613 6.012,5.884L5.954,9.429L4.141,9.429Z" style="fill-rule:nonzero;"/>
    </g>
</svg>
