<svg xmlns="http://www.w3.org/2000/svg" viewBox="0 0 581 512">
  <path fill="currentColor" d="M581 226.6C581 119.1 450.9 32 290.5 32S0 119.1 0 226.6C0 322.4 103.3 402 239.4 418.1V480h99.1v-61.5c24.3-2.7 47.6-7.4 69.4-13.9L448 480h112l-67.4-113.7c54.5-35.4 88.4-84.9 88.4-139.7zm-466.8 14.5c0-73.5 98.9-133 220.8-133s220.8 59.5 220.8 133c0 73.5-98.9 133-220.8 133s-220.8-59.5-220.8-133zm348.3 0c0 22.1-17.9 40-40 40s-40-17.9-40-40 17.9-40 40-40 40 17.9 40 40zm-134.7-40.2a9.8 9.8 0 1 1 0 19.6 9.8 9.8 0 0 1 0-19.6zm45.2 84.8c0 30.9-25.1 56-56 56s-56-25.1-56-56 25.1-56 56-56 56 25.1 56 56z"/>
</svg> 