<?xml version="1.0" encoding="UTF-8" standalone="no"?>
<!DOCTYPE svg PUBLIC "-//W3C//DTD SVG 1.1//EN" "http://www.w3.org/Graphics/SVG/1.1/DTD/svg11.dtd">
<svg width="100%" height="100%" viewBox="0 0 581 512" version="1.1" xmlns="http://www.w3.org/2000/svg" xmlns:xlink="http://www.w3.org/1999/xlink" xml:space="preserve" xmlns:serif="http://www.serif.com/" style="fill-rule:evenodd;clip-rule:evenodd;stroke-linejoin:round;stroke-miterlimit:2;">
    <g transform="matrix(0.718939,0,0,0.718939,2,-31.5768)">
        <path d="M766.048,283.252C750.694,283.252 737.733,293.454 733.536,307.442L687.256,307.442L687.256,288.595C687.256,268.05 670.601,251.395 650.056,251.395L297.205,251.395L345.558,168.031C350.852,158.899 360.698,153.228 371.252,153.228L614.963,153.228C633.713,153.228 648.915,138.026 648.915,119.276C648.915,100.527 633.713,85.325 614.963,85.325L371.252,85.325C336.57,85.325 304.215,103.96 286.819,133.963L218.709,251.397L166.602,251.397C146.058,251.397 129.402,268.053 129.402,288.598L129.402,365.883L22.509,334.538C17.199,332.982 11.465,334.017 7.035,337.333C2.607,340.647 0,345.857 0,351.392L0,614.681C0,620.213 2.607,625.426 7.038,628.742C11.468,632.059 17.201,633.096 22.511,631.537L129.405,600.193L129.405,677.478C129.405,698.023 146.06,714.678 166.605,714.678L650.058,714.678C670.603,714.678 687.259,698.023 687.259,677.478L687.259,435.19L733.539,435.19C737.735,449.181 750.694,459.38 766.051,459.38C784.8,459.38 800.003,444.178 800.003,425.428L800.003,317.207C800,298.455 784.798,283.252 766.048,283.252ZM402.33,663.145C372.333,663.145 348.008,638.827 348.008,608.822C348.008,578.817 372.333,554.499 402.33,554.499C432.346,554.499 456.653,578.817 456.653,608.822C456.653,638.827 432.346,663.145 402.33,663.145ZM576.856,663.145C546.862,663.145 522.533,638.824 522.533,608.822C522.533,578.82 546.862,554.499 576.856,554.499C606.866,554.499 631.179,578.82 631.179,608.822C631.179,638.824 606.864,663.145 576.856,663.145Z" style="fill-rule:nonzero;"/>
    </g>
</svg>
